<svg xmlns="http://www.w3.org/2000/svg" width="21" height="20" viewBox="0 0 21 20" fill="none"><path d="M1.75 0.0878906H19.75C20.0152 0.0878906 20.2696 0.202027 20.4571 0.405192C20.6446 0.608356 20.75 0.883906 20.75 1.17122V18.5046C20.75 18.7919 20.6446 19.0674 20.4571 19.2706C20.2696 19.4738 20.0152 19.5879 19.75 19.5879H1.75C1.48478 19.5879 1.23043 19.4738 1.04289 19.2706C0.855357 19.0674 0.75 18.7919 0.75 18.5046V1.17122C0.75 0.883906 0.855357 0.608356 1.04289 0.405192C1.23043 0.202027 1.48478 0.0878906 1.75 0.0878906ZM18.75 8.75456H2.75V17.4212H18.75V8.75456ZM18.75 6.58789V2.25456H2.75V6.58789H18.75ZM12.75 13.0879H16.75V15.2546H12.75V13.0879Z" fill="white"></path></svg>