<svg xmlns="http://www.w3.org/2000/svg" width="19" height="24" viewBox="0 0 19 24" fill="none"><path d="M9.875 23.5435L3.511 16.6491C2.25234 15.2856 1.39519 13.5483 1.04793 11.657C0.70067 9.76566 0.878907 7.80526 1.5601 6.02369C2.24129 4.24212 3.39484 2.71938 4.87488 1.64805C6.35492 0.576707 8.09498 0.00488281 9.875 0.00488281C11.655 0.00488281 13.3951 0.576707 14.8751 1.64805C16.3552 2.71938 17.5087 4.24212 18.1899 6.02369C18.8711 7.80526 19.0493 9.76566 18.7021 11.657C18.3548 13.5483 17.4977 15.2856 16.239 16.6491L9.875 23.5435ZM14.825 15.1173C15.8039 14.0567 16.4705 12.7055 16.7406 11.2345C17.0106 9.76349 16.8719 8.23878 16.3421 6.85315C15.8123 5.46752 14.915 4.28321 13.7639 3.44998C12.6128 2.61675 11.2594 2.17201 9.875 2.17201C8.49057 2.17201 7.13722 2.61675 5.98609 3.44998C4.83496 4.28321 3.93775 5.46752 3.40792 6.85315C2.87808 8.23878 2.73942 9.76349 3.00945 11.2345C3.27949 12.7055 3.94611 14.0567 4.925 15.1173L9.875 20.4798L14.825 15.1173ZM9.875 11.9215C9.34457 11.9215 8.83586 11.6932 8.46079 11.2869C8.08572 10.8805 7.875 10.3294 7.875 9.7548C7.875 9.18016 8.08572 8.62906 8.46079 8.22273C8.83586 7.81641 9.34457 7.58813 9.875 7.58813C10.4054 7.58813 10.9141 7.81641 11.2892 8.22273C11.6643 8.62906 11.875 9.18016 11.875 9.7548C11.875 10.3294 11.6643 10.8805 11.2892 11.2869C10.9141 11.6932 10.4054 11.9215 9.875 11.9215Z" fill="white"></path></svg>