<svg xmlns="http://www.w3.org/2000/svg" width="28" height="22" viewBox="0 0 28 22" fill="none"><path d="M21.3097 13.8718C20.4284 13.8718 19.677 13.561 19.0555 12.9396C18.4341 12.3182 18.1234 11.5668 18.1234 10.6855C18.1234 9.80413 18.4341 9.05275 19.0555 8.4313C19.677 7.80986 20.4284 7.49914 21.3097 7.49914C22.191 7.49914 22.9424 7.80986 23.5638 8.4313C24.1853 9.05275 24.496 9.80413 24.496 10.6855C24.496 11.5668 24.1853 12.3182 23.5638 12.9396C22.9424 13.561 22.191 13.8718 21.3097 13.8718ZM14.6659 21.363V19.6342C14.6659 19.0467 14.7902 18.5439 15.0388 18.1258C15.2873 17.7078 15.6376 17.3857 16.0896 17.1598C16.9257 16.7304 17.7731 16.414 18.6318 16.2107C19.4906 16.0073 20.3832 15.9056 21.3097 15.9056C22.2362 15.9056 23.1288 16.0016 23.9876 16.1937C24.8463 16.3858 25.6937 16.7078 26.5298 17.1598C26.9818 17.3631 27.332 17.6795 27.5806 18.1089C27.8292 18.5382 27.9535 19.0467 27.9535 19.6342V21.363H14.6659ZM11.683 10.4821C10.1915 10.4821 8.9712 10.0075 8.02209 9.0584C7.07298 8.10928 6.59842 6.889 6.59842 5.39753C6.59842 3.90606 7.07298 2.68577 8.02209 1.73666C8.9712 0.787546 10.1915 0.312988 11.683 0.312988C13.1744 0.312988 14.3947 0.787546 15.3438 1.73666C16.2929 2.68577 16.7675 3.90606 16.7675 5.39753C16.7675 6.889 16.2929 8.10928 15.3438 9.0584C14.3947 10.0075 13.1744 10.4821 11.683 10.4821ZM0.835938 21.363V18.1767C0.835938 17.4083 1.02802 16.7022 1.41219 16.0581C1.79635 15.4141 2.3726 14.9226 3.14093 14.5836C4.65499 13.9057 6.10691 13.3972 7.49669 13.0582C8.88646 12.7193 10.2819 12.5498 11.683 12.5498C12.4061 12.5498 13.0501 12.5837 13.6151 12.6515C14.18 12.7193 14.7902 12.821 15.4455 12.9565L14.5811 13.8209L13.7168 14.6853C13.423 14.6401 13.1066 14.6118 12.7677 14.6005C12.4287 14.5893 12.0671 14.5836 11.683 14.5836C10.3949 14.5836 9.14069 14.7135 7.9204 14.9734C6.70011 15.2333 5.37813 15.7135 3.95446 16.414C3.63809 16.5722 3.37821 16.8208 3.17483 17.1598C2.97144 17.4987 2.86975 17.8377 2.86975 18.1767V19.3292H12.6321V21.363H0.835938ZM11.683 8.44825C12.5643 8.44825 13.2931 8.16013 13.8693 7.58388C14.4456 7.00763 14.7337 6.27885 14.7337 5.39753C14.7337 4.51621 14.4456 3.78743 13.8693 3.21118C13.2931 2.63493 12.5643 2.3468 11.683 2.3468C10.8016 2.3468 10.0729 2.63493 9.49661 3.21118C8.92036 3.78743 8.63223 4.51621 8.63223 5.39753C8.63223 6.27885 8.92036 7.00763 9.49661 7.58388C10.0729 8.16013 10.8016 8.44825 11.683 8.44825Z" fill="#2B7DDD"></path></svg>