<svg xmlns="http://www.w3.org/2000/svg" width="35" height="35" viewBox="0 0 35 35" fill="none"><path d="M21.2891 14.0877L20.8902 15.6988H13.2891L13.6879 14.0877H21.2891ZM17.7231 24.9488L13.4298 18.7266L13.4064 17.5599H15.5413C16.0965 17.5599 16.5696 17.4673 16.9606 17.2821C17.3516 17.0923 17.6507 16.8099 17.858 16.4349C18.0652 16.0553 18.1688 15.5784 18.1688 15.0043C18.1688 14.1571 17.9538 13.4928 17.5237 13.0113C17.0936 12.5252 16.4328 12.2821 15.5413 12.2821H13.2891L13.6879 10.7266H15.5413C16.4953 10.7266 17.2773 10.9141 17.8873 11.2891C18.5012 11.6594 18.9548 12.1687 19.248 12.8168C19.5452 13.4604 19.6938 14.1895 19.6938 15.0043C19.6938 15.7405 19.5569 16.4187 19.2832 17.0391C19.0134 17.6548 18.5794 18.1502 17.9811 18.5252C17.3868 18.9002 16.6009 19.0877 15.6234 19.0877H15.5882L19.553 24.8377V24.9488H17.7231ZM21.2891 10.7266L20.8902 12.3377L14.9078 12.2821L15.3067 10.7266H21.2891Z" fill="#2B7DDD"></path><path d="M26.5 34.5C22.6339 34.5 19.5 31.3661 19.5 27.5C19.5 23.6339 22.6339 20.5 26.5 20.5C30.3661 20.5 33.5 23.6339 33.5 27.5C33.5 31.3661 30.3661 34.5 26.5 34.5Z" fill="#2B7DDD" stroke="#EEF5FC"></path><path d="M28.7729 25.81L25.4303 29.153L23.7071 27.4298L23.8099 27.327L25.0768 28.5938L25.4304 28.9474L25.7839 28.5938L28.6701 25.7071L28.7729 25.81Z" fill="white" stroke="#EEF5FC"></path><rect x="1.28906" y="1.83789" width="32" height="32" rx="16" stroke="#2B7DDD" stroke-width="2"></rect></svg>