<svg xmlns="http://www.w3.org/2000/svg" width="35" height="33" viewBox="0 0 35 33" fill="none"><path d="M12.1845 32.8379L9.28925 27.8855L3.53687 26.7046L4.18449 21.1046L0.527344 16.8379L4.18449 12.6093L3.53687 7.00932L9.28925 5.82837L12.1845 0.837891L17.2892 3.1998L22.394 0.837891L25.3273 5.82837L31.0416 7.00932L30.394 12.6093L34.0512 16.8379L30.394 21.1046L31.0416 26.7046L25.3273 27.8855L22.394 32.8379L17.2892 30.476L12.1845 32.8379ZM13.2131 29.8284L17.2892 28.1141L21.4797 29.8284L24.0321 26.0188L28.4893 24.876L28.0321 20.3427L31.1178 16.8379L28.0321 13.2569L28.4893 8.72361L24.0321 7.65694L21.4035 3.84741L17.2892 5.5617L13.0988 3.84741L10.5464 7.65694L6.08925 8.72361L6.54639 13.2569L3.46068 16.8379L6.54639 20.3427L6.08925 24.9522L10.5464 26.0188L13.2131 29.8284ZM15.6512 21.9046L24.2988 13.3331L22.5845 11.7712L15.6512 18.6284L12.0321 14.8569L10.2797 16.5712L15.6512 21.9046Z" fill="#2B7DDD"></path></svg>