<svg xmlns="http://www.w3.org/2000/svg" width="21" height="21" viewBox="0 0 21 21" fill="none"><path d="M11.125 6.50439V15.1711C11.125 16.033 10.8089 16.8597 10.2463 17.4692C9.68371 18.0787 8.92065 18.4211 8.125 18.4211H5.955C5.71909 19.1442 5.2548 19.7537 4.64419 20.1418C4.03358 20.5299 3.31598 20.6717 2.61821 20.542C1.92045 20.4124 1.28746 20.0197 0.831126 19.4333C0.374797 18.8469 0.124512 18.1047 0.124512 17.3377C0.124512 16.5708 0.374797 15.8285 0.831126 15.2422C1.28746 14.6558 1.92045 14.2631 2.61821 14.1334C3.31598 14.0038 4.03358 14.1455 4.64419 14.5337C5.2548 14.9218 5.71909 15.5313 5.955 16.2544H8.125C8.39022 16.2544 8.64457 16.1403 8.83211 15.9371C9.01964 15.7339 9.125 15.4584 9.125 15.1711V6.50439C9.125 5.64244 9.44107 4.81579 10.0037 4.2063C10.5663 3.5968 11.3294 3.25439 12.125 3.25439H15.125V0.00439453L20.125 4.33773L15.125 8.67106V5.42106H12.125C11.8598 5.42106 11.6054 5.5352 11.4179 5.73836C11.2304 5.94153 11.125 6.21708 11.125 6.50439ZM3.125 18.4211C3.39022 18.4211 3.64457 18.3069 3.83211 18.1038C4.01964 17.9006 4.125 17.625 4.125 17.3377C4.125 17.0504 4.01964 16.7749 3.83211 16.5717C3.64457 16.3685 3.39022 16.2544 3.125 16.2544C2.85978 16.2544 2.60543 16.3685 2.41789 16.5717C2.23036 16.7749 2.125 17.0504 2.125 17.3377C2.125 17.625 2.23036 17.9006 2.41789 18.1038C2.60543 18.3069 2.85978 18.4211 3.125 18.4211Z" fill="white"></path></svg>