<svg xmlns="http://www.w3.org/2000/svg" width="27" height="14" viewBox="0 0 27 14" fill="none"><path d="M0.625 13.3379V11.9025C0.625 11.1983 1.00417 10.6296 1.7625 10.1962C2.52083 9.76289 3.49583 9.54622 4.6875 9.54622C4.92222 9.54622 5.13889 9.55074 5.3375 9.55977C5.53611 9.56879 5.73472 9.59136 5.93333 9.62747C5.78889 9.93442 5.68056 10.2459 5.60833 10.5618C5.53611 10.8778 5.5 11.2164 5.5 11.5775V13.3379H0.625ZM7.125 13.3379V11.5775C7.125 10.4039 7.72535 9.45595 8.92604 8.73372C10.1267 8.0115 11.6931 7.65039 13.625 7.65039C15.575 7.65039 17.1458 8.0115 18.3375 8.73372C19.5292 9.45595 20.125 10.4039 20.125 11.5775V13.3379H7.125ZM21.75 13.3379V11.5775C21.75 11.2164 21.7184 10.8778 21.6552 10.5618C21.592 10.2459 21.4882 9.93442 21.3438 9.62747C21.5424 9.59136 21.741 9.56879 21.9396 9.55977C22.1382 9.55074 22.3458 9.54622 22.5625 9.54622C23.7903 9.54622 24.7743 9.76289 25.5146 10.1962C26.2549 10.6296 26.625 11.1983 26.625 11.9025V13.3379H21.75ZM13.625 9.27539C12.1806 9.27539 11.0069 9.49206 10.1042 9.92539C9.20139 10.3587 8.75 10.9094 8.75 11.5775V11.7129H18.5V11.5504C18.5 10.9004 18.0531 10.3587 17.1594 9.92539C16.2656 9.49206 15.0875 9.27539 13.625 9.27539ZM4.6875 8.73372C4.16389 8.73372 3.71701 8.54865 3.34688 8.17852C2.97674 7.80838 2.79167 7.3615 2.79167 6.83789C2.79167 6.31428 2.97674 5.8674 3.34688 5.49727C3.71701 5.12713 4.16389 4.94206 4.6875 4.94206C5.21111 4.94206 5.65799 5.12713 6.02813 5.49727C6.39826 5.8674 6.58333 6.31428 6.58333 6.83789C6.58333 7.3615 6.39826 7.80838 6.02813 8.17852C5.65799 8.54865 5.21111 8.73372 4.6875 8.73372ZM22.5625 8.73372C22.0389 8.73372 21.592 8.54865 21.2219 8.17852C20.8517 7.80838 20.6667 7.3615 20.6667 6.83789C20.6667 6.31428 20.8517 5.8674 21.2219 5.49727C21.592 5.12713 22.0389 4.94206 22.5625 4.94206C23.0861 4.94206 23.533 5.12713 23.9031 5.49727C24.2733 5.8674 24.4583 6.31428 24.4583 6.83789C24.4583 7.3615 24.2733 7.80838 23.9031 8.17852C23.533 8.54865 23.0861 8.73372 22.5625 8.73372ZM13.625 6.83789C12.7222 6.83789 11.9549 6.52192 11.3229 5.88997C10.691 5.25803 10.375 4.49067 10.375 3.58789C10.375 2.66706 10.691 1.89518 11.3229 1.27227C11.9549 0.649349 12.7222 0.337891 13.625 0.337891C14.5458 0.337891 15.3177 0.649349 15.9406 1.27227C16.5635 1.89518 16.875 2.66706 16.875 3.58789C16.875 4.49067 16.5635 5.25803 15.9406 5.88997C15.3177 6.52192 14.5458 6.83789 13.625 6.83789ZM13.625 1.96289C13.1736 1.96289 12.7899 2.11636 12.474 2.42331C12.158 2.73025 12 3.11845 12 3.58789C12 4.03928 12.158 4.42296 12.474 4.73893C12.7899 5.0549 13.1736 5.21289 13.625 5.21289C14.0944 5.21289 14.4826 5.0549 14.7896 4.73893C15.0965 4.42296 15.25 4.03928 15.25 3.58789C15.25 3.11845 15.0965 2.73025 14.7896 2.42331C14.4826 2.11636 14.0944 1.96289 13.625 1.96289Z" fill="white"></path></svg>