<svg xmlns="http://www.w3.org/2000/svg" width="520" height="521" viewBox="0 0 520 521" fill="none"><rect y="0.748047" width="520" height="520" rx="260" fill="#2B7DDD" fill-opacity="0.06"></rect><path d="M261.801 387.474C347.497 387.474 416.968 383.418 416.968 378.415C416.968 373.411 347.497 369.355 261.801 369.355C176.104 369.355 106.633 373.411 106.633 378.415C106.633 383.418 176.104 387.474 261.801 387.474Z" fill="#F5F5F5"></path><path d="M406.132 336.176L410.198 271.465C410.555 265.774 409.743 260.07 407.811 254.705C405.879 249.34 402.868 244.428 398.964 240.271C395.06 236.115 390.346 232.802 385.113 230.538C379.879 228.273 374.237 227.105 368.535 227.105C357.872 227.107 347.614 231.189 339.866 238.513C332.117 245.838 327.465 255.85 326.864 266.496L322.623 342.074H399.85C401.451 342.074 402.991 341.463 404.158 340.368C405.325 339.272 406.031 337.774 406.132 336.176Z" fill="#2B7DDD"></path><path opacity="0.1" d="M406.276 333.847L410.198 271.481C410.555 265.79 409.743 260.086 407.811 254.721C405.879 249.356 402.868 244.443 398.964 240.287C395.06 236.13 390.346 232.818 385.113 230.553C379.879 228.289 374.237 227.121 368.535 227.121C357.872 227.123 347.614 231.204 339.866 238.529C332.117 245.853 327.465 255.865 326.864 266.511L322.623 342.074H397.521C399.751 342.067 401.895 341.213 403.52 339.686C405.145 338.159 406.13 336.072 406.276 333.847Z" fill="black"></path><path d="M393.6 342.074L398.033 271.465C398.39 265.774 397.576 260.071 395.644 254.706C393.711 249.342 390.701 244.43 386.797 240.274C382.893 236.117 378.18 232.805 372.947 230.54C367.714 228.275 362.072 227.106 356.37 227.105C345.707 227.105 335.448 231.186 327.699 238.511C319.95 245.836 315.299 255.849 314.7 266.496L310.434 342.074H393.6Z" fill="#2B7DDD"></path><path d="M394.928 354.23H395.992C396.279 354.215 396.551 354.098 396.76 353.9C396.968 353.702 397.099 353.436 397.129 353.15L398.729 342.082H392.247L393.848 353.15C393.877 353.426 394 353.684 394.197 353.881C394.394 354.078 394.652 354.201 394.928 354.23Z" fill="#2B7DDD"></path><path opacity="0.7" d="M394.928 354.23H395.992C396.279 354.215 396.551 354.098 396.76 353.9C396.968 353.702 397.099 353.436 397.129 353.15L398.729 342.082H392.247L393.848 353.15C393.877 353.426 394 353.684 394.197 353.881C394.394 354.078 394.652 354.201 394.928 354.23Z" fill="white"></path><path d="M290.371 354.23H291.331C291.603 354.202 291.857 354.078 292.046 353.88C292.235 353.682 292.348 353.423 292.363 353.15L293.812 342.082H287.922L289.354 353.15C289.369 353.421 289.48 353.678 289.666 353.875C289.852 354.073 290.101 354.199 290.371 354.23Z" fill="#2B7DDD"></path><path opacity="0.5" d="M290.371 354.23H291.331C291.603 354.202 291.857 354.078 292.046 353.88C292.235 353.682 292.348 353.423 292.363 353.15L293.812 342.082H287.922L289.354 353.15C289.369 353.421 289.48 353.678 289.666 353.875C289.852 354.073 290.101 354.199 290.371 354.23Z" fill="white"></path><path d="M320.47 354.23H321.438C321.71 354.202 321.964 354.078 322.153 353.88C322.342 353.682 322.455 353.423 322.47 353.15L323.895 342.082H318.013L319.421 353.15C319.437 353.426 319.552 353.687 319.745 353.885C319.937 354.083 320.194 354.206 320.47 354.23Z" fill="#2B7DDD"></path><path opacity="0.7" d="M320.47 354.23H321.438C321.71 354.202 321.964 354.078 322.153 353.88C322.342 353.682 322.455 353.423 322.47 353.15L323.895 342.082H318.013L319.421 353.15C319.437 353.426 319.552 353.687 319.745 353.885C319.937 354.083 320.194 354.206 320.47 354.23Z" fill="white"></path><path d="M362.517 354.23H363.581C363.869 354.213 364.141 354.096 364.35 353.898C364.559 353.701 364.692 353.436 364.726 353.15L366.326 342.082H359.836L361.437 353.15C361.465 353.427 361.587 353.686 361.784 353.883C361.981 354.079 362.24 354.202 362.517 354.23Z" fill="#2B7DDD"></path><path opacity="0.5" d="M362.517 354.23H363.581C363.869 354.213 364.141 354.096 364.35 353.898C364.559 353.701 364.692 353.436 364.726 353.15L366.326 342.082H359.836L361.437 353.15C361.465 353.427 361.587 353.686 361.784 353.883C361.981 354.079 362.24 354.202 362.517 354.23Z" fill="white"></path><path d="M327.28 315.441H298.822L296.941 288.008L296.533 282.118L296.349 279.405C296.298 278.693 296.204 277.985 296.069 277.284C296.069 277.132 296.005 276.964 295.973 276.812C295.956 276.697 295.926 276.584 295.885 276.476C295.118 273.679 293.624 271.136 291.555 269.105C289.168 266.747 286.012 265.327 282.664 265.104H309.434C309.722 265.104 310.018 265.104 310.314 265.104C313.943 265.119 317.422 266.556 320.005 269.105C322.077 271.136 323.573 273.679 324.343 276.476C324.384 276.584 324.414 276.697 324.431 276.812C324.619 277.666 324.745 278.532 324.807 279.405L324.991 282.118L327.28 315.441Z" fill="#2B7DDD"></path><path opacity="0.1" d="M327.28 315.441H298.822L296.941 288.008L296.533 282.118L296.349 279.405C296.298 278.693 296.204 277.985 296.069 277.284C296.069 277.132 296.005 276.964 295.973 276.812C295.956 276.697 295.926 276.584 295.885 276.476C295.118 273.679 293.624 271.136 291.555 269.105C289.168 266.747 286.012 265.327 282.664 265.104H309.434C309.722 265.104 310.018 265.104 310.314 265.104C313.943 265.119 317.422 266.556 320.005 269.105C322.077 271.136 323.573 273.679 324.343 276.476C324.384 276.584 324.414 276.697 324.431 276.812C324.619 277.666 324.745 278.532 324.807 279.405L324.991 282.118L327.28 315.441Z" fill="black"></path><g opacity="0.1"><path d="M349.832 300.795H361.26C364.045 300.795 366.294 302.556 366.294 304.724V311.479C366.294 313.655 364.045 315.408 361.26 315.408H349.832V300.795Z" fill="black"></path></g><path d="M303.167 315.409H353.505C355.901 315.409 357.843 313.467 357.843 311.072V305.126C357.843 302.73 355.901 300.788 353.505 300.788H303.167C300.772 300.788 298.83 302.73 298.83 305.126V311.072C298.83 313.467 300.772 315.409 303.167 315.409Z" fill="#2B7DDD"></path><path d="M421.857 281.244C421.864 285.071 420.517 288.776 418.055 291.705C415.594 294.634 412.175 296.598 408.404 297.25L405.483 336.248C405.227 339.561 402.818 342.098 399.937 342.098H368.55C371.431 342.098 373.832 339.561 374.088 336.248L375.689 315.441L377.041 297.226C379.508 296.802 381.843 295.811 383.861 294.331C385.879 292.85 387.525 290.921 388.669 288.695C388.827 288.412 388.968 288.121 389.094 287.823C390.018 285.753 390.493 283.511 390.486 281.244C390.484 280.134 390.372 279.027 390.15 277.939C390.062 277.507 389.95 277.075 389.83 276.651C389.26 274.745 388.349 272.958 387.141 271.377C385.626 269.404 383.679 267.806 381.45 266.704C379.22 265.603 376.767 265.027 374.28 265.023H405.668C408.183 265.013 410.665 265.6 412.91 266.735C415.105 267.828 417.021 269.407 418.512 271.353C420.69 274.189 421.867 277.668 421.857 281.244Z" fill="#2B7DDD"></path><path opacity="0.1" d="M421.857 281.244C421.864 285.071 420.517 288.776 418.055 291.705C415.594 294.634 412.175 296.598 408.404 297.25L405.483 336.248C405.227 339.561 402.818 342.098 399.937 342.098H368.55C371.431 342.098 373.832 339.561 374.088 336.248L375.689 315.441L377.041 297.226C379.508 296.802 381.843 295.811 383.861 294.331C385.879 292.85 387.525 290.921 388.669 288.695C388.827 288.412 388.968 288.121 389.094 287.823C390.018 285.753 390.493 283.511 390.486 281.244C390.484 280.134 390.372 279.027 390.15 277.939C390.062 277.507 389.95 277.075 389.83 276.651C389.26 274.745 388.349 272.958 387.141 271.377C385.626 269.404 383.679 267.806 381.45 266.704C379.22 265.603 376.767 265.027 374.28 265.023H405.668C408.183 265.013 410.665 265.6 412.91 266.735C415.105 267.828 417.021 269.407 418.512 271.353C420.69 274.189 421.867 277.668 421.857 281.244Z" fill="black"></path><path d="M390.494 281.252C390.494 289.255 385.221 295.922 378.298 297.258L375.625 336.248C375.393 339.561 373.224 342.106 370.599 342.106H286.777C284.169 342.106 281.976 339.561 281.752 336.248L279.071 297.186C272.284 295.762 267.154 289.183 267.154 281.276C267.138 277.957 268.08 274.703 269.867 271.905C271.219 269.772 273.081 268.009 275.285 266.775C277.291 265.647 279.554 265.055 281.856 265.055C285.486 265.076 288.966 266.512 291.555 269.056C293.624 271.085 295.118 273.625 295.885 276.419C295.926 276.533 295.956 276.651 295.973 276.771C296.162 277.622 296.288 278.486 296.349 279.356L296.541 282.069L298.822 315.441H358.555L361.028 279.428C361.38 274.338 363.861 270.096 367.302 268.088C369.477 266.348 372.134 265.317 374.913 265.135C375.205 265.105 375.499 265.092 375.793 265.095C378.028 265.082 380.23 265.633 382.196 266.695C382.257 266.722 382.316 266.755 382.372 266.791C384.401 267.918 386.143 269.498 387.461 271.409C389.448 274.306 390.506 277.74 390.494 281.252Z" fill="#2B7DDD"></path><path opacity="0.1" d="M357.17 342.082H286.745C284.136 342.082 281.944 339.537 281.719 336.224L279.039 297.162C272.252 295.737 267.122 289.159 267.122 281.252C267.106 277.932 268.048 274.678 269.835 271.881C271.187 269.747 273.049 267.984 275.253 266.751C277.259 265.623 279.522 265.03 281.824 265.03C285.454 265.052 288.933 266.487 291.523 269.032C293.592 271.06 295.085 273.601 295.853 276.394C295.894 276.508 295.924 276.626 295.941 276.746C296.13 277.598 296.255 278.462 296.317 279.331L296.509 282.044L298.822 315.44H358.555L357.17 342.082Z" fill="white"></path><path d="M348.039 231.187C346.647 231.987 345.374 232.651 344.038 233.331C342.701 234.012 341.389 234.636 340.036 235.26C337.347 236.484 334.627 237.661 331.826 238.677C329.002 239.727 326.128 240.635 323.214 241.398C320.183 242.213 317.088 242.767 313.963 243.055L313.299 243.119H312.987C310.162 242.791 307.657 242.319 305.144 241.758C302.631 241.198 300.142 240.646 297.677 240.014C295.212 239.382 292.764 238.733 290.315 238.029C287.866 237.325 285.441 236.597 283.016 235.772L284.128 230.218C289.162 230.538 294.188 231.019 299.166 231.539L306.601 232.283C309.049 232.523 311.554 232.731 313.747 232.811H312.779C315.29 232.364 317.767 231.738 320.189 230.939C322.694 230.138 325.199 229.226 327.704 228.154C330.209 227.081 332.69 225.977 335.155 224.8C336.419 224.224 337.644 223.616 338.844 223.016C340.044 222.415 341.325 221.775 342.421 221.207L348.039 231.187Z" fill="#263238"></path><path opacity="0.1" d="M348.039 231.187C346.647 231.987 345.374 232.651 344.038 233.331C342.701 234.012 341.389 234.636 340.036 235.26C337.347 236.484 334.627 237.661 331.826 238.677C329.002 239.727 326.128 240.635 323.214 241.398C320.183 242.213 317.088 242.767 313.963 243.055L313.299 243.119H312.987C310.162 242.791 307.657 242.319 305.144 241.758C302.631 241.198 300.142 240.646 297.677 240.014C295.212 239.382 292.764 238.733 290.315 238.029C287.866 237.325 285.441 236.597 283.016 235.772L284.128 230.218C289.162 230.538 294.188 231.019 299.166 231.539L306.601 232.283C309.049 232.523 311.554 232.731 313.747 232.811H312.779C315.29 232.364 317.767 231.738 320.189 230.939C322.694 230.138 325.199 229.226 327.704 228.154C330.209 227.081 332.69 225.977 335.155 224.8C336.419 224.224 337.644 223.616 338.844 223.016C340.044 222.415 341.325 221.775 342.421 221.207L348.039 231.187Z" fill="black"></path><path d="M283.112 227.169C281.929 226.339 280.622 225.701 279.239 225.28L277.166 233.371L283.376 235.98L284.08 235.116C284.558 234.539 284.913 233.87 285.123 233.151C285.334 232.432 285.396 231.678 285.305 230.934C285.215 230.19 284.974 229.473 284.596 228.826C284.219 228.178 283.714 227.615 283.112 227.169Z" fill="#FFC3BD"></path><path d="M277.166 233.372L279.239 225.281L273.445 222.12L271.7 227.818L277.166 233.372Z" fill="#FFC3BD"></path><path opacity="0.2" d="M328.552 239.414H328.776H328.872C331.929 239.085 340.917 237.573 347.415 231.163C346.447 229.29 345.118 227.841 343.494 227.513C339.012 226.665 333.522 229.874 328.552 239.414Z" fill="black"></path><path d="M333.826 281.244C341.493 260.541 336.451 241.502 337.411 230.962C337.647 228.364 338.723 225.914 340.476 223.982C342.229 222.05 344.564 220.741 347.127 220.254C352.361 219.246 358.835 218.11 365.005 217.277C366.729 217.039 368.485 217.177 370.151 217.681C371.817 218.185 373.354 219.044 374.657 220.198C375.96 221.352 376.998 222.774 377.699 224.367C378.401 225.96 378.75 227.685 378.722 229.426C378.186 260.637 368.182 281.244 368.182 281.244L352.017 281.172L333.826 281.244Z" fill="#2B7DDD"></path><path opacity="0.8" d="M333.826 281.244C341.493 260.541 336.451 241.502 337.411 230.962C337.647 228.364 338.723 225.914 340.476 223.982C342.229 222.05 344.564 220.741 347.127 220.254C352.361 219.246 358.835 218.11 365.005 217.277C366.729 217.039 368.485 217.177 370.151 217.681C371.817 218.185 373.354 219.044 374.657 220.198C375.96 221.352 376.998 222.774 377.699 224.367C378.401 225.96 378.75 227.685 378.722 229.426C378.186 260.637 368.182 281.244 368.182 281.244L352.017 281.172L333.826 281.244Z" fill="white"></path><path d="M272.493 351.885L270.444 365.354H276.95L281.224 351.885H272.493Z" fill="#FFC3BD"></path><path d="M269.612 362.353L278.311 362.145C278.379 362.137 278.448 362.144 278.513 362.164C278.578 362.184 278.639 362.218 278.69 362.264C278.741 362.309 278.782 362.365 278.811 362.427C278.839 362.489 278.854 362.557 278.855 362.625V369.027C278.816 369.382 278.649 369.71 278.385 369.95C278.122 370.19 277.779 370.326 277.422 370.332C274.397 370.332 272.957 370.22 269.132 370.332C265.059 370.319 260.991 370.052 256.951 369.531C253.854 369.003 254.694 366.098 256.095 366.05C262.417 365.818 265.954 364.498 268.227 362.849C268.623 362.539 269.109 362.365 269.612 362.353Z" fill="#263238"></path><path opacity="0.2" d="M271.668 357.287L272.493 351.885H281.224L279.127 358.623L271.668 357.287Z" fill="black"></path><path d="M329.825 276.394C329.825 276.394 276.886 276.922 276.062 293.688C274.893 317.793 270.82 354.51 270.82 354.51L280.799 357.255C280.799 357.255 295.044 320.818 295.597 301.987C310.49 299.026 348.768 301.987 353.265 292.208C355.463 287.231 356.056 281.692 354.962 276.362L329.825 276.394Z" fill="#2B7DDD"></path><path opacity="0.6" d="M329.825 276.394C329.825 276.394 276.886 276.922 276.062 293.688C274.893 317.793 270.82 354.51 270.82 354.51L280.799 357.255C280.799 357.255 295.044 320.818 295.597 301.987C310.49 299.026 348.768 301.987 353.265 292.208C355.463 287.231 356.056 281.692 354.962 276.362L329.825 276.394Z" fill="black"></path><path d="M319.069 357.095L322.599 366.234H329.737L327.28 356.623L319.069 357.095Z" fill="#FFC3BD"></path><path opacity="0.2" d="M327.945 359.216L326.56 352.182L317.541 353.302L319.854 359.416L327.945 359.216Z" fill="black"></path><path d="M320.662 363.209H329.777C329.925 363.198 330.07 363.245 330.183 363.341C330.295 363.437 330.365 363.573 330.378 363.721L330.818 370.547C330.809 370.917 330.656 371.268 330.391 371.525C330.126 371.783 329.771 371.926 329.401 371.924C326.2 371.868 324.711 371.692 320.702 371.692C318.245 371.692 313.267 371.932 309.866 371.932C306.465 371.932 306.561 368.731 307.994 368.482C314.476 367.186 316.981 365.401 319.262 363.681C319.667 363.38 320.157 363.215 320.662 363.209Z" fill="#263238"></path><path d="M344.062 276.395C344.062 276.395 296.045 279.652 297.23 296.402C298.518 314.744 317.749 357.28 317.749 357.28H327.424C327.424 357.28 321.022 318.69 318.077 299.995C331.618 299.995 362.997 302.036 367.511 292.232C369.7 287.252 370.287 281.715 369.191 276.387L344.062 276.395Z" fill="#2B7DDD"></path><path opacity="0.5" d="M344.062 276.395C344.062 276.395 296.045 279.652 297.23 296.402C298.518 314.744 317.749 357.28 317.749 357.28H327.424C327.424 357.28 321.022 318.69 318.077 299.995C331.618 299.995 362.997 302.036 367.511 292.232C369.7 287.252 370.287 281.715 369.191 276.387L344.062 276.395Z" fill="black"></path><path d="M351.337 208.538C352.441 212.812 352.785 218.142 346.815 220.342C345.158 222.983 344.35 225.768 350.728 224.776C355.806 224.12 360.426 221.507 363.605 217.493C359.788 214.148 360.484 203.889 361.452 198.103L351.337 208.538Z" fill="#FFC3BD"></path><path d="M350.632 216.317C345.15 217.254 340.644 221.495 338.228 226.497C335.811 231.499 335.227 237.197 335.275 242.759C335.323 248.321 335.955 253.859 335.803 259.413C335.635 265.815 334.09 270.353 331.881 276.387C331.881 277.819 334.05 278.628 335.883 279.004C339.708 270.657 342.221 262.67 341.957 253.499C341.757 246.84 341.669 239.254 342.757 232.691C343.846 226.129 351.696 217.558 351.32 216.373L350.632 216.317Z" fill="#263238"></path><path opacity="0.3" d="M355.994 211.675C355.42 212.102 354.765 212.408 354.069 212.576C353.373 212.744 352.651 212.769 351.945 212.652C351.958 211.612 351.883 210.573 351.721 209.546L358.347 204.104C358.492 204.812 358.586 205.529 358.627 206.249C358.699 207.305 358.493 208.36 358.032 209.312C357.57 210.264 356.868 211.078 355.994 211.675Z" fill="black"></path><path d="M346.086 183.265C339.084 187.227 339.012 198.423 341.173 204.873C341.718 206.565 342.718 208.076 344.063 209.238C345.408 210.401 347.047 211.171 348.801 211.465C350.555 211.76 352.356 211.566 354.007 210.906C355.658 210.245 357.095 209.144 358.163 207.722C361.588 203.392 361.092 199.023 360.924 191.5C360.756 183.977 353.097 179.312 346.086 183.265Z" fill="#FFC3BD"></path><path opacity="0.2" d="M348.344 203.4C346.087 204.368 343.614 205.625 341.333 205.353C341.947 206.974 342.984 208.402 344.337 209.486C345.691 210.571 347.31 211.272 349.027 211.517C350.744 211.762 352.495 211.543 354.097 210.881C355.7 210.219 357.096 209.139 358.139 207.753C360.964 204.2 361.836 201.799 361.036 195.333C356.65 200.471 353.169 201.319 348.344 203.4Z" fill="black"></path><path d="M355.114 185.795C354.387 186.976 354.063 188.362 354.192 189.743C354.32 191.124 354.894 192.426 355.826 193.453C356.458 194.118 357.235 194.63 357.843 195.31C358.791 196.377 359.285 197.773 359.219 199.199C359.362 198.282 359.819 197.442 360.512 196.824C361.206 196.207 362.093 195.85 363.021 195.814C362.071 198.754 361.121 201.688 360.172 204.617C362.051 203.741 363.676 202.398 364.892 200.718C366.107 199.037 366.874 197.074 367.118 195.014C367.726 189.332 360.716 177.16 355.114 185.795Z" fill="#263238"></path><path d="M338.772 186.187C338.236 186.782 337.854 187.499 337.659 188.275C337.566 188.66 337.592 189.064 337.735 189.433C337.878 189.803 338.131 190.119 338.46 190.34C339.066 190.584 339.737 190.618 340.364 190.436L346.767 189.324C350.432 188.684 354.097 188.051 357.715 187.179C359.315 186.795 361.164 186.179 361.804 184.642C363.877 179.64 355.026 178.992 352.065 179.128C347.023 179.392 341.925 182.289 338.772 186.187Z" fill="#263238"></path><path d="M362.061 194.534C359.964 195.006 359.068 198.023 359.124 199.96C359.124 202.16 360.724 203.593 362.581 202.264C363.96 201.239 364.898 199.729 365.206 198.039C365.582 195.966 364.165 194.061 362.061 194.534Z" fill="#FFC3BD"></path><path d="M347.247 202.176C346.93 202.387 346.569 202.527 346.191 202.583C345.814 202.64 345.428 202.613 345.062 202.504C345.863 200.695 345.767 201.103 346.015 198.03L347.247 202.176Z" fill="#ED847E"></path><path d="M350.936 192.197C350.336 191.525 348.696 191.269 347.807 191.397C347.717 191.409 347.626 191.385 347.553 191.331C347.48 191.278 347.431 191.198 347.415 191.109C347.403 191.013 347.428 190.916 347.484 190.837C347.54 190.758 347.624 190.704 347.719 190.685C348.84 190.517 350.704 190.853 351.465 191.693C351.531 191.76 351.567 191.851 351.567 191.945C351.567 192.039 351.531 192.13 351.465 192.197C351.42 192.244 351.365 192.279 351.304 192.301C351.24 192.321 351.17 192.322 351.105 192.304C351.04 192.285 350.981 192.248 350.936 192.197Z" fill="#263238"></path><path d="M340.581 193.693C340.506 193.641 340.453 193.562 340.436 193.472C340.418 193.383 340.435 193.29 340.485 193.213C340.765 192.708 341.159 192.275 341.635 191.949C342.112 191.622 342.658 191.411 343.23 191.332C343.273 191.331 343.317 191.339 343.358 191.355C343.398 191.371 343.436 191.395 343.467 191.425C343.498 191.456 343.523 191.492 343.54 191.533C343.557 191.573 343.566 191.616 343.566 191.66C343.57 191.757 343.537 191.853 343.473 191.926C343.409 191.999 343.319 192.044 343.222 192.052C342.77 192.124 342.342 192.298 341.967 192.56C341.593 192.822 341.283 193.166 341.061 193.565C341.032 193.617 340.99 193.661 340.94 193.693C340.89 193.725 340.832 193.745 340.773 193.749C340.704 193.755 340.636 193.735 340.581 193.693Z" fill="#263238"></path><path d="M346.631 205.434C347.4 206.414 348.109 207.44 348.752 208.507L349.248 208.299C351.505 207.323 352.145 205.962 352.177 204.754C352.149 203.792 351.853 202.858 351.321 202.057C350.52 203.441 348.496 204.546 347.391 205.082C346.919 205.314 346.631 205.434 346.631 205.434Z" fill="#2E353A"></path><path d="M347.375 205.082L347.703 205.53C347.793 205.65 347.921 205.737 348.066 205.776C348.211 205.815 348.365 205.805 348.503 205.746C350.168 204.946 351.272 204.145 351.705 203.241C351.744 203.156 351.764 203.063 351.764 202.969C351.764 202.875 351.744 202.782 351.705 202.697C351.598 202.475 351.475 202.261 351.336 202.057C350.496 203.441 348.479 204.546 347.375 205.082Z" fill="white"></path><path d="M349.231 208.299C351.488 207.323 352.128 205.962 352.16 204.754C351.303 205.149 350.542 205.725 349.928 206.443C349.505 206.972 349.261 207.622 349.231 208.299Z" fill="#DE5753"></path><path d="M343.15 196.198C342.758 196.27 342.541 196.83 342.654 197.431C342.766 198.031 343.19 198.463 343.582 198.383C343.974 198.303 344.19 197.759 344.078 197.159C343.966 196.558 343.542 196.198 343.15 196.198Z" fill="#263238"></path><path d="M350.016 195.094C349.624 195.166 349.408 195.718 349.52 196.326C349.632 196.935 350.056 197.359 350.449 197.279C350.841 197.199 351.057 196.646 350.945 196.046C350.833 195.446 350.409 195.022 350.016 195.094Z" fill="#263238"></path><path opacity="0.9" d="M340.125 199.448L345.174 198.312L345.262 200.456L340.565 201.577L340.125 199.448Z" fill="white"></path><g opacity="0.8"><path opacity="0.9" d="M346.711 197.976L347.311 199.945L353.793 198.552L353.409 196.279L346.711 197.976Z" fill="white"></path></g><path d="M345.206 199.104L345.174 198.312L346.71 197.976L346.934 198.72L345.206 199.104Z" fill="#263238"></path><path d="M343.366 280.324C343.366 280.324 352.481 283.853 354.57 284.542C356.971 285.482 359.498 286.061 362.068 286.262C363.372 286.35 364.679 286.159 365.903 285.702C367.127 285.245 368.239 284.533 369.167 283.613C371.344 281.293 372.024 277.771 372.592 274.466C374.257 264.761 375.927 255.057 377.602 245.352C378.402 240.55 380.507 233.347 380.331 230.634C380.003 225.593 376.794 219.639 368.623 216.365C365.422 215.093 362.308 215.565 359.636 218.766C358.035 220.671 353.377 225.265 352.233 233.355C351.321 239.838 349.896 248.233 349.984 254.819C350.088 263.478 346.631 274.394 343.366 280.324Z" fill="#263238"></path><path d="M379.883 227.97C380.811 236.405 376.146 257.668 375.249 258.949C371.424 271.281 360.916 264.631 359.396 264.062C356.747 263.086 354.05 261.173 351.529 259.901C346.639 257.5 342.006 255.515 337.46 252.498L340.021 247.44C345.007 249.137 359.116 252.786 361.445 253.355C362.453 253.619 366.382 255.675 366.342 252.962C366.894 252.058 367.663 234.444 369.351 228.218C369.544 227.519 369.879 226.868 370.336 226.305L370.488 226.113C371.104 225.34 371.921 224.752 372.849 224.412C373.777 224.072 374.78 223.994 375.75 224.185C376.719 224.377 377.618 224.831 378.346 225.499C379.075 226.166 379.607 227.021 379.883 227.97Z" fill="#263238"></path><path opacity="0.1" d="M379.883 227.97C380.811 236.405 376.146 257.668 375.249 258.949C371.424 271.281 360.916 264.631 359.396 264.062C356.747 263.086 354.05 261.173 351.529 259.901C346.639 257.5 342.006 255.515 337.46 252.498L340.021 247.44C345.007 249.137 359.116 252.786 361.445 253.355C362.453 253.619 366.382 255.675 366.342 252.962C366.894 252.058 367.663 234.444 369.351 228.218C369.544 227.519 369.879 226.868 370.336 226.305L370.488 226.113C371.104 225.34 371.921 224.752 372.849 224.412C373.777 224.072 374.78 223.994 375.75 224.185C376.719 224.377 377.618 224.831 378.346 225.499C379.075 226.166 379.607 227.021 379.883 227.97Z" fill="white"></path><path d="M338.02 259.82H314.331L311.626 228.913H335.315L338.02 259.82Z" fill="#263238"></path><path opacity="0.5" d="M338.02 259.82H314.331L311.626 228.913H335.315L338.02 259.82Z" fill="white"></path><path d="M337.18 259.67H313.491L310.786 228.763H334.475L337.18 259.67Z" fill="#2B7DDD"></path><path opacity="0.8" d="M337.18 259.67H313.491L310.786 228.763H334.475L337.18 259.67Z" fill="white"></path><path d="M327.785 230.691H317.821L317.485 226.825H327.44L327.785 230.691Z" fill="#2B7DDD"></path><path d="M317.485 226.825L318.461 226.489H328.777L328.921 228.13L328.153 229.018L328.105 230.363L327.785 230.691L327.44 226.825H317.485Z" fill="#2B7DDD"></path><path opacity="0.5" d="M317.485 226.825L318.461 226.489H328.777L328.921 228.13L328.153 229.018L328.105 230.363L327.785 230.691L327.44 226.825H317.485Z" fill="black"></path><path d="M341.909 249.113L342.445 252.002C341.165 255.339 333.826 254.459 333.826 254.459V245.92L340.3 247.424C340.702 247.523 341.067 247.734 341.352 248.033C341.637 248.332 341.831 248.707 341.909 249.113Z" fill="#FFC3BD"></path><path d="M333.81 245.92L333.842 254.475L327.344 254.635L325.855 247.112L333.81 245.92Z" fill="#FFC3BD"></path><path d="M358.555 315.441L361.028 279.428C361.38 274.338 363.861 270.097 367.302 268.088C369.477 266.348 372.133 265.317 374.913 265.135C375.205 265.106 375.499 265.092 375.793 265.095C378.028 265.083 380.229 265.633 382.195 266.696C382.257 266.723 382.315 266.755 382.371 266.792C384.401 267.919 386.143 269.499 387.461 271.409C389.457 274.315 390.518 277.76 390.502 281.285C390.502 289.288 385.228 295.954 378.306 297.291L375.625 336.248C375.393 339.562 373.224 342.107 370.599 342.107H357.17L358.555 315.441Z" fill="#2B7DDD"></path><path opacity="0.1" d="M358.555 315.441L361.028 279.428C361.38 274.338 363.861 270.097 367.302 268.088C369.477 266.348 372.133 265.317 374.913 265.135C375.205 265.106 375.499 265.092 375.793 265.095C378.028 265.083 380.229 265.633 382.195 266.696C382.257 266.723 382.315 266.755 382.371 266.792C384.401 267.919 386.143 269.499 387.461 271.409C389.457 274.315 390.518 277.76 390.502 281.285C390.502 289.288 385.228 295.954 378.306 297.291L375.625 336.248C375.393 339.562 373.224 342.107 370.599 342.107H357.17L358.555 315.441Z" fill="white"></path><path d="M236.431 147.859V181.319C236.431 182.168 236.094 182.983 235.494 183.583C234.893 184.183 234.079 184.52 233.23 184.52H198.962L186.718 193.988C186.37 194.25 185.956 194.41 185.523 194.45C185.089 194.49 184.653 194.408 184.264 194.213C183.875 194.019 183.547 193.719 183.319 193.348C183.091 192.978 182.971 192.55 182.972 192.115V184.52H181.06C180.211 184.52 179.396 184.183 178.796 183.583C178.196 182.983 177.858 182.168 177.858 181.319V147.851C177.86 147.435 177.945 147.022 178.108 146.638C178.27 146.255 178.507 145.907 178.805 145.615C179.102 145.323 179.455 145.093 179.842 144.939C180.229 144.784 180.643 144.708 181.06 144.714H233.286C234.12 144.714 234.92 145.046 235.51 145.635C236.1 146.225 236.431 147.025 236.431 147.859V147.859Z" stroke="#2B7DDD" stroke-miterlimit="10"></path><path d="M204.34 140H197.801V140.8H204.34V140Z" fill="#2B7DDD"></path><path d="M173.769 149.429H172.969V145.483C172.971 144.026 173.551 142.63 174.582 141.601C175.613 140.571 177.01 139.993 178.467 139.993H193.056V140.793H178.451C177.207 140.796 176.014 141.29 175.134 142.169C174.254 143.048 173.757 144.239 173.753 145.483L173.769 149.429Z" fill="#2B7DDD"></path><path d="M220.001 169.227C219.653 169.229 219.309 169.159 218.99 169.022C218.67 168.884 218.383 168.682 218.145 168.428C217.908 168.174 217.725 167.873 217.609 167.545C217.494 167.217 217.447 166.869 217.472 166.522C218.329 156.767 226.059 155.87 227.028 144.778C227.308 141.577 226.139 140.377 223.907 140.377C221.674 140.377 220.297 141.585 220.017 144.778L219.857 146.603C219.785 147.427 219.406 148.195 218.796 148.753C218.185 149.312 217.388 149.621 216.56 149.62C216.102 149.62 215.649 149.524 215.23 149.339C214.811 149.154 214.435 148.884 214.125 148.547C213.816 148.209 213.581 147.81 213.433 147.376C213.286 146.943 213.231 146.483 213.271 146.027L213.343 145.226C213.967 138.088 217.833 134.022 224.659 134.022C231.485 134.022 234.63 138.104 234.006 145.226C232.99 156.791 224.547 158.583 223.827 166.738C223.831 166.778 223.831 166.818 223.827 166.858C223.79 167.505 223.508 168.114 223.038 168.56C222.568 169.006 221.946 169.256 221.298 169.259L220.001 169.227ZM223.467 176.013C223.394 176.853 223.01 177.634 222.389 178.203C221.768 178.772 220.956 179.088 220.113 179.087C219.647 179.087 219.185 178.991 218.757 178.803C218.33 178.615 217.946 178.341 217.631 177.997C217.315 177.653 217.075 177.247 216.925 176.805C216.775 176.363 216.719 175.894 216.76 175.429C216.832 174.589 217.218 173.806 217.841 173.237C218.464 172.667 219.278 172.353 220.121 172.356C220.587 172.358 221.047 172.456 221.473 172.644C221.899 172.833 222.281 173.108 222.596 173.451C222.91 173.795 223.15 174.2 223.3 174.641C223.45 175.082 223.506 175.549 223.467 176.013Z" fill="#2B7DDD"></path><path d="M210.982 161.393H192.576C192.151 161.393 191.744 161.224 191.444 160.924C191.144 160.624 190.975 160.216 190.975 159.792C190.975 159.367 191.144 158.96 191.444 158.66C191.744 158.36 192.151 158.191 192.576 158.191H210.982C211.407 158.191 211.814 158.36 212.114 158.66C212.414 158.96 212.583 159.367 212.583 159.792C212.583 160.216 212.414 160.624 212.114 160.924C211.814 161.224 211.407 161.393 210.982 161.393Z" fill="#2B7DDD"></path><path d="M208.438 167.73H192.608C192.183 167.73 191.776 167.562 191.476 167.262C191.176 166.961 191.007 166.554 191.007 166.13C191.007 165.705 191.176 165.298 191.476 164.998C191.776 164.698 192.183 164.529 192.608 164.529H208.438C208.862 164.529 209.269 164.698 209.569 164.998C209.869 165.298 210.038 165.705 210.038 166.13C210.038 166.554 209.869 166.961 209.569 167.262C209.269 167.562 208.862 167.73 208.438 167.73Z" fill="#2B7DDD"></path><path d="M205.893 174.061H192.608C192.183 174.061 191.776 173.892 191.476 173.592C191.176 173.292 191.007 172.884 191.007 172.46C191.007 172.035 191.176 171.628 191.476 171.328C191.776 171.028 192.183 170.859 192.608 170.859H205.893C206.317 170.859 206.724 171.028 207.024 171.328C207.325 171.628 207.493 172.035 207.493 172.46C207.493 172.884 207.325 173.292 207.024 173.592C206.724 173.892 206.317 174.061 205.893 174.061Z" fill="#2B7DDD"></path><path d="M168.232 304.644H156.54C153.691 304.644 151.386 306.444 151.386 308.645V315.559C151.386 317.784 153.691 319.561 156.54 319.561H168.232V304.644Z" fill="#2B7DDD"></path><path d="M113.892 337.206L109.827 272.495C109.469 266.805 110.281 261.102 112.213 255.738C114.145 250.374 117.155 245.463 121.058 241.307C124.961 237.151 129.674 233.839 134.907 231.575C140.139 229.311 145.78 228.143 151.482 228.144C162.146 228.143 172.405 232.224 180.156 239.549C187.906 246.873 192.559 256.887 193.16 267.534L197.418 343.113H120.15C118.553 343.105 117.017 342.491 115.855 341.395C114.693 340.298 113.992 338.801 113.892 337.206Z" fill="#2B7DDD"></path><path opacity="0.1" d="M113.748 334.862L109.827 272.495C109.469 266.805 110.281 261.102 112.213 255.738C114.145 250.374 117.155 245.463 121.058 241.307C124.961 237.151 129.674 233.839 134.907 231.575C140.139 229.311 145.78 228.143 151.482 228.144C162.146 228.143 172.405 232.224 180.156 239.549C187.906 246.873 192.559 256.887 193.16 267.534L197.418 343.113H122.551C120.309 343.117 118.15 342.266 116.514 340.732C114.878 339.199 113.889 337.099 113.748 334.862Z" fill="black"></path><path d="M126.424 343.113L121.991 272.495C121.633 266.805 122.446 261.101 124.378 255.736C126.31 250.372 129.321 245.46 133.225 241.304C137.129 237.148 141.843 233.836 147.076 231.573C152.31 229.309 157.952 228.142 163.654 228.144C174.316 228.145 184.574 232.227 192.323 239.551C200.071 246.876 204.724 256.888 205.325 267.534L209.59 343.113H126.424Z" fill="#2B7DDD"></path><path d="M125.096 355.269H124.032C123.744 355.25 123.471 355.131 123.262 354.932C123.053 354.733 122.92 354.467 122.887 354.18L121.287 343.112H127.777L126.176 354.18C126.149 354.458 126.026 354.718 125.829 354.916C125.633 355.114 125.374 355.239 125.096 355.269Z" fill="#2B7DDD"></path><path opacity="0.7" d="M125.096 355.269H124.032C123.744 355.25 123.471 355.131 123.262 354.932C123.053 354.733 122.92 354.467 122.887 354.18L121.287 343.112H127.777L126.176 354.18C126.149 354.458 126.026 354.718 125.829 354.916C125.633 355.114 125.374 355.239 125.096 355.269Z" fill="white"></path><path d="M229.653 355.269H228.685C228.412 355.239 228.158 355.113 227.969 354.914C227.78 354.714 227.668 354.455 227.653 354.18L226.228 343.112H232.11L230.686 354.18C230.67 354.455 230.558 354.714 230.369 354.914C230.18 355.113 229.926 355.239 229.653 355.269Z" fill="#2B7DDD"></path><path opacity="0.5" d="M229.653 355.269H228.685C228.412 355.239 228.158 355.113 227.969 354.914C227.78 354.714 227.668 354.455 227.653 354.18L226.228 343.112H232.11L230.686 354.18C230.67 354.455 230.558 354.714 230.369 354.914C230.18 355.113 229.926 355.239 229.653 355.269Z" fill="white"></path><path d="M199.555 355.269H198.578C198.305 355.239 198.052 355.113 197.862 354.914C197.673 354.714 197.561 354.455 197.546 354.18L196.113 343.112H202.003L200.579 354.18C200.562 354.453 200.451 354.711 200.263 354.91C200.076 355.108 199.826 355.235 199.555 355.269Z" fill="#2B7DDD"></path><path opacity="0.7" d="M199.555 355.269H198.578C198.305 355.239 198.052 355.113 197.862 354.914C197.673 354.714 197.561 354.455 197.546 354.18L196.113 343.112H202.003L200.579 354.18C200.562 354.453 200.451 354.711 200.263 354.91C200.076 355.108 199.826 355.235 199.555 355.269Z" fill="white"></path><path d="M157.508 355.269H156.443C156.155 355.251 155.882 355.133 155.672 354.934C155.463 354.734 155.33 354.468 155.299 354.18L153.698 343.112H160.189L158.588 354.18C158.56 354.458 158.438 354.718 158.241 354.916C158.044 355.114 157.785 355.239 157.508 355.269Z" fill="#2B7DDD"></path><path opacity="0.5" d="M157.508 355.269H156.443C156.155 355.251 155.882 355.133 155.672 354.934C155.463 354.734 155.33 354.468 155.299 354.18L153.698 343.112H160.189L158.588 354.18C158.56 354.458 158.438 354.718 158.241 354.916C158.044 355.114 157.785 355.239 157.508 355.269Z" fill="white"></path><path d="M192.744 316.439H221.202L223.083 289.029L223.483 283.139L223.675 280.426C223.724 279.714 223.815 279.006 223.947 278.305C223.947 278.153 224.019 277.993 224.051 277.841C224.068 277.723 224.098 277.608 224.139 277.497C224.906 274.703 226.4 272.163 228.469 270.134C230.854 267.777 234.007 266.357 237.352 266.133H210.582C210.286 266.133 209.998 266.133 209.702 266.133C206.071 266.151 202.59 267.587 200.003 270.134C197.934 272.163 196.44 274.703 195.673 277.497C195.632 277.608 195.602 277.723 195.585 277.841C195.397 278.692 195.271 279.556 195.209 280.426L195.025 283.139L192.744 316.439Z" fill="#2B7DDD"></path><path opacity="0.1" d="M192.744 316.439H221.202L223.083 289.029L223.483 283.139L223.675 280.426C223.724 279.714 223.815 279.006 223.947 278.305C223.947 278.153 224.019 277.993 224.051 277.841C224.068 277.723 224.098 277.608 224.139 277.497C224.906 274.703 226.4 272.163 228.469 270.134C230.854 267.777 234.007 266.357 237.352 266.133H210.582C210.286 266.133 209.998 266.133 209.702 266.133C206.071 266.151 202.59 267.587 200.003 270.134C197.934 272.163 196.44 274.703 195.673 277.497C195.632 277.608 195.602 277.723 195.585 277.841C195.397 278.692 195.271 279.556 195.209 280.426L195.025 283.139L192.744 316.439Z" fill="black"></path><g opacity="0.1"><path d="M170.192 301.834H158.756C155.979 301.834 153.73 303.595 153.73 305.763V312.526C153.73 314.695 155.979 316.455 158.756 316.455H170.192V301.834Z" fill="black"></path></g><path d="M216.857 301.825H166.519C164.124 301.825 162.182 303.767 162.182 306.163V312.109C162.182 314.504 164.124 316.446 166.519 316.446H216.857C219.253 316.446 221.195 314.504 221.195 312.109V306.163C221.195 303.767 219.253 301.825 216.857 301.825Z" fill="#2B7DDD"></path><path d="M98.1426 282.283C98.1358 286.109 99.4825 289.815 101.944 292.744C104.406 295.673 107.825 297.637 111.595 298.289L114.548 337.255C114.805 340.568 117.205 343.113 120.086 343.113H151.482C148.601 343.113 146.2 340.568 145.944 337.255L144.343 316.447L142.967 298.273C140.503 297.842 138.173 296.847 136.159 295.365C134.144 293.884 132.5 291.956 131.354 289.734C131.202 289.445 131.066 289.149 130.938 288.853C130.01 286.788 129.532 284.548 129.538 282.283C129.538 281.17 129.653 280.059 129.882 278.97C129.97 278.538 130.082 278.105 130.194 277.689C130.768 275.781 131.682 273.992 132.891 272.407C134.387 270.466 136.302 268.887 138.493 267.79C140.728 266.666 143.194 266.08 145.696 266.077H114.356C112.728 266.076 111.109 266.322 109.555 266.805C106.353 267.793 103.537 269.75 101.496 272.407C99.3183 275.239 98.1392 278.711 98.1426 282.283Z" fill="#2B7DDD"></path><path opacity="0.1" d="M98.1426 282.283C98.1358 286.109 99.4825 289.815 101.944 292.744C104.406 295.673 107.825 297.637 111.595 298.289L114.548 337.255C114.805 340.568 117.205 343.113 120.086 343.113H151.482C148.601 343.113 146.2 340.568 145.944 337.255L144.343 316.447L142.967 298.273C140.503 297.842 138.173 296.847 136.159 295.365C134.144 293.884 132.5 291.956 131.354 289.734C131.202 289.445 131.066 289.149 130.938 288.853C130.01 286.788 129.532 284.548 129.538 282.283C129.538 281.17 129.653 280.059 129.882 278.97C129.97 278.538 130.082 278.105 130.194 277.689C130.768 275.781 131.682 273.992 132.891 272.407C134.387 270.466 136.302 268.887 138.493 267.79C140.728 266.666 143.194 266.08 145.696 266.077H114.356C112.728 266.076 111.109 266.322 109.555 266.805C106.353 267.793 103.537 269.75 101.496 272.407C99.3183 275.239 98.1392 278.711 98.1426 282.283Z" fill="black"></path><path d="M129.53 282.282C129.53 290.285 134.804 296.96 141.726 298.288L144.399 337.286C144.631 340.607 146.8 343.144 149.425 343.144H233.247C235.856 343.144 238.049 340.607 238.273 337.286L240.954 298.232C247.732 296.808 252.862 290.229 252.862 282.314C252.88 278.995 251.941 275.742 250.157 272.943C248.801 270.81 246.937 269.047 244.731 267.813C242.725 266.692 240.466 266.103 238.169 266.101C234.537 266.117 231.056 267.553 228.469 270.102C226.399 272.131 224.903 274.671 224.132 277.465C224.097 277.577 224.07 277.692 224.052 277.809C223.86 278.659 223.734 279.524 223.676 280.394L223.484 283.107L221.203 316.431H161.469L158.997 280.418C158.636 275.328 156.164 271.086 152.722 269.078C150.544 267.344 147.889 266.314 145.112 266.125C144.815 266.125 144.527 266.125 144.231 266.125C141.997 266.112 139.795 266.663 137.829 267.725C137.765 267.748 137.703 267.777 137.645 267.813C135.62 268.947 133.88 270.526 132.555 272.431C130.567 275.33 129.511 278.767 129.53 282.282Z" fill="#2B7DDD"></path><path opacity="0.1" d="M162.846 343.113H233.271C235.88 343.113 238.073 340.576 238.297 337.255L240.978 298.201C247.756 296.776 252.886 290.198 252.886 282.283C252.904 278.964 251.965 275.71 250.181 272.912C248.825 270.779 246.961 269.016 244.755 267.782C242.749 266.661 240.49 266.071 238.193 266.069C234.561 266.086 231.08 267.522 228.493 270.071C226.423 272.099 224.927 274.64 224.156 277.433C224.121 277.546 224.094 277.661 224.076 277.778C223.884 278.628 223.758 279.492 223.699 280.362L223.507 283.075L221.227 316.399H161.469L162.846 343.113Z" fill="white"></path><path d="M184.277 356.886L191.103 358.774L197.233 342.729L190.407 340.84L184.277 356.886Z" fill="#FFC3BD"></path><path d="M194.161 356.645C193.622 355.947 192.844 355.474 191.976 355.317L184.973 353.949C184.81 353.901 184.634 353.92 184.485 354.001C184.335 354.082 184.223 354.218 184.173 354.381L182.004 360.783C181.942 360.957 181.915 361.141 181.925 361.326C181.934 361.51 181.98 361.691 182.06 361.857C182.139 362.024 182.251 362.173 182.388 362.297C182.526 362.42 182.686 362.515 182.861 362.576H182.909C185.502 363.6 187.254 363.248 191.304 364.032C193.809 364.512 199.05 366.177 202.556 366.033C206.061 365.889 206.053 362.424 204.58 362.167C199.379 361.367 195.377 358.23 194.161 356.645Z" fill="#263238"></path><g opacity="0.2"><path d="M197.234 342.737L194.073 351.011L187.246 349.107L190.399 340.84L197.234 342.737Z" fill="black"></path></g><path d="M174.45 281.826C174.45 281.826 215.552 281.602 214.272 295.367C213.408 304.667 208.942 314.438 205.469 323.873C200.419 337.55 196.041 349.483 196.041 349.483L186.678 346.241C186.678 346.241 195.089 306.691 200.755 302.642H165.999C154.499 302.642 149.529 290.013 160.725 275.288C167.567 275.312 174.45 281.826 174.45 281.826Z" fill="#2B7DDD"></path><path opacity="0.6" d="M174.45 281.827C174.45 281.827 215.552 281.603 214.272 295.368C214.904 303.923 196.033 349.467 196.033 349.467L186.67 346.226C186.67 346.226 195.081 306.676 200.747 302.626H165.999C154.499 302.626 149.529 289.998 160.725 275.272C167.567 275.312 174.45 281.827 174.45 281.827Z" fill="black"></path><path d="M203.436 256.834C198.379 261.452 188.447 250.52 186.846 249.223C183.421 246.422 173.354 237.027 173.882 233.762C175.482 224.158 191.232 237.763 195.786 247.143L203.436 256.834Z" fill="#263238"></path><path d="M159.173 227.936C156.636 228.472 153.891 227.56 152.106 229.44C150.322 231.321 149.577 233.962 149.321 236.539C149.096 240.139 149.284 243.753 149.881 247.311C150.415 251.648 150.972 255.983 151.554 260.315C151.915 263.884 151.777 267.485 151.146 271.015C151.079 271.39 151.139 271.777 151.316 272.114C151.492 272.452 151.776 272.721 152.122 272.88C152.122 272.88 171.801 273.552 177.523 273.336C180.564 273.224 178.476 265.221 179.412 260.532C179.62 259.491 181.653 255.218 181.957 254.129C183.365 248.967 182.429 245.414 181.157 240.228C180.204 236.459 179.812 231.025 177.891 230.625C174.434 229.913 166.231 226.431 159.173 227.936Z" fill="#2B7DDD"></path><path opacity="0.8" d="M159.173 227.936C156.636 228.472 153.891 227.56 152.106 229.44C150.322 231.321 149.577 233.962 149.321 236.539C149.096 240.139 149.284 243.753 149.881 247.311C150.415 251.648 150.972 255.983 151.554 260.315C151.915 263.884 151.777 267.485 151.146 271.015C151.079 271.39 151.139 271.777 151.316 272.114C151.492 272.452 151.776 272.721 152.122 272.88C152.122 272.88 171.801 273.552 177.523 273.336C180.564 273.224 178.476 265.221 179.412 260.532C179.62 259.491 181.653 255.218 181.957 254.129C183.365 248.967 182.429 245.414 181.157 240.228C180.204 236.459 179.812 231.025 177.891 230.625C174.434 229.913 166.231 226.431 159.173 227.936Z" fill="white"></path><path d="M156.363 231.634C156.099 231.234 149.161 225.408 147.92 232.138C146.168 241.509 149.793 250.729 149.793 250.729C149.793 250.729 150.593 260.868 153.57 261.885C156.548 262.901 159.317 263.149 160.309 261.412C160.951 260.059 161.289 258.581 161.301 257.083C161.301 257.083 160.965 238.612 156.363 231.634Z" fill="#263238"></path><path d="M161.157 215.075C161.87 219.389 162.47 227.272 159.389 230.049C159.389 230.049 166.919 233.994 171.865 240.876C172.963 240.057 173.775 238.912 174.186 237.605C174.597 236.298 174.586 234.894 174.154 233.594C173.906 232.773 173.495 232.011 172.944 231.354C172.394 230.696 171.717 230.157 170.953 229.768C168.032 228.168 168.312 225.143 169.112 222.31L161.157 215.075Z" fill="#E8BFBF"></path><path opacity="0.2" d="M162.142 222.397L164.951 223.478C166.153 223.943 167.44 224.15 168.728 224.086C168.528 224.966 168.528 225.879 168.728 226.759C167.721 227.034 166.655 227.012 165.661 226.693C164.667 226.375 163.786 225.775 163.126 224.966C162.672 224.164 162.34 223.298 162.142 222.397Z" fill="black"></path><path d="M231.87 343.089H239.521L231.51 323.906L226.324 332.709L231.87 343.089Z" fill="#FFC3BD"></path><path d="M238.889 341.272L229.917 339.231C229.764 339.192 229.601 339.213 229.462 339.288C229.322 339.364 229.217 339.489 229.165 339.639L226.66 346.538C226.61 346.712 226.595 346.894 226.615 347.074C226.636 347.253 226.691 347.427 226.779 347.586C226.867 347.744 226.985 347.884 227.126 347.996C227.268 348.109 227.431 348.192 227.605 348.242C230.75 348.898 232.294 349.042 236.24 349.947C238.641 350.499 244.819 352.116 248.172 352.876C251.525 353.636 252.405 350.355 251.069 349.731C245.083 346.962 241.842 344.313 240.105 342.056C239.802 341.663 239.372 341.386 238.889 341.272Z" fill="#263238"></path><g opacity="0.2"><path d="M231.51 323.906L234.919 332.077L228.037 335.919L226.324 332.717L231.51 323.906Z" fill="black"></path></g><path d="M150.993 272.967L150.193 275.576C150.089 275.776 150.321 275.985 150.657 276.001L180.268 276.897C180.54 276.897 180.756 276.785 180.78 276.617L181.124 273.992C181.124 273.816 180.916 273.656 180.636 273.64L151.506 272.759C151.409 272.744 151.311 272.756 151.221 272.792C151.13 272.829 151.052 272.89 150.993 272.967Z" fill="#263238"></path><path d="M188.031 294.375C178.291 298.528 167.728 302.674 161.981 302.674C150.473 302.674 140.254 294.367 151.146 275.464C157.996 275.464 169.896 275.656 169.896 275.656C169.896 275.656 192.304 269.254 208.614 271.142C212.479 271.594 216.101 273.258 218.961 275.896C221.821 278.535 223.771 282.012 224.532 285.828C228.661 306.635 235.024 329.139 235.024 329.139L226.837 334.741C226.837 334.741 214.072 307.908 206.725 286.628C202.836 287.852 195.69 291.11 188.031 294.375Z" fill="#2B7DDD"></path><path opacity="0.5" d="M224.532 285.829C223.774 282.01 221.826 278.529 218.965 275.888C216.105 273.246 212.481 271.579 208.614 271.127C192.336 269.271 169.896 275.641 169.896 275.641C169.896 275.641 157.996 275.425 151.146 275.449C140.078 294.272 150.473 302.659 161.982 302.659C167.728 302.659 178.291 298.513 188.031 294.36C195.69 291.094 202.836 287.837 206.725 286.589C214.072 307.892 226.837 334.734 226.837 334.734L235.024 329.132C235.024 329.132 228.661 306.636 224.532 285.829Z" fill="black"></path><path d="M214.272 295.432C214.012 298.105 213.611 300.763 213.072 303.395C213.032 303.307 213 303.227 212.968 303.139C212.936 303.051 212.968 303.099 212.968 303.075C212.941 302.986 212.906 302.9 212.864 302.818C210.687 297.409 208.558 291.863 206.757 286.637H206.813C211.471 288.613 214.648 291.43 214.272 295.432Z" fill="#2B7DDD"></path><path opacity="0.6" d="M214.272 295.432C214.012 298.105 213.611 300.763 213.072 303.395C213.032 303.307 213 303.227 212.968 303.139C212.936 303.051 212.968 303.099 212.968 303.075C212.941 302.986 212.906 302.9 212.864 302.818C210.687 297.409 208.558 291.863 206.757 286.637H206.813C211.471 288.613 214.648 291.43 214.272 295.432Z" fill="black"></path><path d="M155.907 210.93C158.308 217.692 159.188 220.605 163.686 223.142C170.464 226.967 178.227 222.518 177.891 215.139C177.587 208.537 173.706 198.581 166.183 197.781C164.523 197.594 162.844 197.835 161.303 198.481C159.763 199.127 158.414 200.157 157.384 201.471C156.354 202.786 155.678 204.342 155.419 205.992C155.161 207.642 155.329 209.331 155.907 210.898V210.93Z" fill="#E8BFBF"></path><path d="M168.064 210.049C168.232 210.633 168.656 210.977 169.024 210.849C169.392 210.721 169.536 210.209 169.392 209.641C169.248 209.072 168.808 208.712 168.432 208.84C168.056 208.968 167.904 209.489 168.064 210.049Z" fill="#263238"></path><path d="M174.346 208.064C174.514 208.657 174.938 209.001 175.306 208.865C175.674 208.729 175.819 208.224 175.674 207.656C175.53 207.088 175.082 206.728 174.722 206.856C174.362 206.984 174.186 207.512 174.346 208.064Z" fill="#263238"></path><path d="M174.57 206.945L175.802 206.145C175.802 206.145 175.41 207.401 174.57 206.945Z" fill="#263238"></path><path d="M172.097 209.346C172.963 210.482 173.981 211.495 175.122 212.355C174.893 212.638 174.604 212.867 174.277 213.026C173.949 213.185 173.59 213.27 173.226 213.275L172.097 209.346Z" fill="#ED847E"></path><path d="M151.489 215.403C151.981 216.62 152.354 217.883 152.602 219.172C152.67 220.469 152.253 221.745 151.432 222.751C150.611 223.757 149.444 224.421 148.16 224.614C149.278 224.912 150.465 224.814 151.52 224.337C152.574 223.861 153.432 223.034 153.946 221.997C153.334 223.626 152.124 224.96 150.561 225.727C151.678 225.739 152.782 225.493 153.789 225.009C154.795 224.524 155.676 223.814 156.363 222.934C155.987 223.91 155.563 224.878 155.227 225.855C157.127 224.704 158.687 223.069 159.748 221.117C160.172 220.317 160.493 219.276 159.932 218.572C159.372 217.868 158.484 217.916 157.668 217.9C156.851 217.884 155.867 217.692 155.571 216.931C155.275 216.171 155.819 215.411 156.411 214.891C157.003 214.371 157.716 213.89 157.932 213.13C158.034 212.58 157.996 212.013 157.82 211.482C157.451 210.009 157.089 208.534 156.731 207.056C156.634 206.534 156.447 206.033 156.179 205.575C154.578 203.175 152.794 206.696 152.178 207.888C151.024 210.221 150.779 212.899 151.489 215.403Z" fill="#263238"></path><path d="M155.435 217.556C156.341 218.734 157.676 219.508 159.148 219.709C161.109 219.949 161.797 218.108 161.013 216.436C160.301 214.899 158.428 212.938 156.579 213.459C154.731 213.979 154.331 216.083 155.435 217.556Z" fill="#E8BFBF"></path><path d="M168.168 205.215C168.155 205.29 168.119 205.359 168.066 205.413C168.014 205.467 167.946 205.504 167.871 205.519C166.271 205.823 165.343 207.752 165.343 207.768C165.302 207.855 165.23 207.923 165.14 207.958C165.05 207.992 164.951 207.99 164.862 207.952C164.777 207.912 164.711 207.84 164.678 207.752C164.645 207.664 164.648 207.566 164.686 207.48C164.758 207.408 165.751 205.191 167.735 204.807C167.828 204.793 167.923 204.815 168.001 204.868C168.078 204.922 168.132 205.003 168.152 205.095C168.169 205.133 168.174 205.174 168.168 205.215Z" fill="#263238"></path><path d="M172.441 203.615C172.388 203.607 172.333 203.609 172.281 203.623C172.228 203.637 172.179 203.661 172.137 203.695C172.049 203.791 171.753 203.959 171.921 204.047C172.897 204.543 174.25 205.36 175.29 205.192C175.466 205.192 175.882 205.008 175.794 204.88C175.734 204.815 175.658 204.767 175.574 204.74C175.49 204.714 175.4 204.709 175.314 204.727C174.514 204.84 173.385 204.063 172.617 203.663C172.561 203.64 172.501 203.624 172.441 203.615Z" fill="#263238"></path><path d="M168.279 208.92L169.52 208.12C169.52 208.12 169.128 209.393 168.279 208.92Z" fill="#263238"></path><path d="M168.167 194.82C165.438 194.324 165.086 194.14 162.317 194.316C159.52 194.404 156.816 195.339 154.562 196.997C152.457 198.737 150.972 201.113 150.329 203.768C149.7 206.413 149.629 209.16 150.121 211.834C150.209 213.112 150.761 214.313 151.673 215.212C151.766 213.774 152.01 212.349 152.402 210.962C152.81 209.562 153.65 208.327 154.802 207.433C155.311 207.158 155.749 206.769 156.083 206.297C156.256 205.83 156.353 205.338 156.371 204.84C156.622 203.72 157.292 202.737 158.244 202.095C159.189 201.468 160.201 200.947 161.261 200.542C164.63 199.094 168.303 198.262 171.408 196.309C170.392 195.683 169.304 195.183 168.167 194.82Z" fill="#263238"></path><path d="M154.203 205.528C154.935 206.417 155.938 207.044 157.06 207.312C158.388 207.616 161.709 207.536 161.909 207.192C162.109 206.848 160.925 203.119 159.58 202.895C160.508 203.79 161.616 204.478 162.83 204.911C164.203 205.186 165.618 205.186 166.991 204.911C167.695 204.751 166.119 201.838 164.974 201.006C168.424 201.726 172.073 202.551 174.578 205.007C177.083 207.464 178.163 211.354 178.035 214.979C178.622 214.506 179.094 213.906 179.414 213.224C179.734 212.541 179.895 211.795 179.884 211.042C180.488 212.916 180.709 214.893 180.535 216.855C180.36 218.817 179.793 220.723 178.867 222.462C182.533 219.453 183.901 214.195 182.941 209.553C181.98 204.911 178.939 200.87 175.25 197.901C172.049 195.364 168.24 193.467 164.182 193.371C158.86 193.211 149.001 199.261 154.203 205.528Z" fill="#263238"></path><path d="M158.516 226.928C158.516 226.663 158.581 226.311 158.613 225.943C158.682 225.098 158.436 224.257 157.922 223.583C157.407 222.909 156.661 222.45 155.828 222.294C155.58 222.25 155.349 222.14 155.158 221.977C154.966 221.814 154.822 221.603 154.739 221.366C154.123 219.573 153.883 219.029 153.291 217.268C151.69 216.876 149.761 217.476 148.089 217.652C147.625 219.661 147.592 221.745 147.993 223.766C148.057 224.219 148.233 224.648 148.505 225.015C150.024 226.259 151.703 227.293 153.499 228.088C154.939 228.528 156.964 227.064 158.516 226.928Z" fill="#E8BFBF"></path><path d="M153.666 228.128C153.666 228.128 149.257 256.578 153.802 260.94C156.467 263.485 158.772 262.076 160.205 260.484C160.73 259.89 161.125 259.193 161.365 258.438C161.604 257.683 161.684 256.886 161.597 256.098L158.5 226.952C158.5 226.952 155.459 225.151 153.666 228.128Z" fill="#E8BFBF"></path><path d="M201.044 253.816C202.854 252.236 204.153 250.152 204.773 247.83C204.915 247.011 204.968 246.179 204.933 245.349C204.893 240.195 203.437 230.744 203.437 230.744L199.251 229.359C199.251 229.359 197.947 236.562 197.651 240.499C197.595 241.3 197.506 242.188 197.41 243.156C197.226 244.917 197.002 246.854 196.802 248.462L201.044 253.816Z" fill="#E8BFBF"></path><path d="M203.436 256.833C204.725 255.657 204.941 254.232 205.605 251.231C206.237 248.366 205.525 244.829 204.933 245.365C204.859 245.432 204.804 245.518 204.773 245.613C203.756 248.014 199.803 245.909 198.683 244.709C198.2 244.25 197.775 243.734 197.418 243.172C197.271 242.958 197.193 242.704 197.193 242.444C197.193 242.184 197.271 241.93 197.418 241.716C196.202 241.212 195.225 245.997 195.818 247.174L196.122 248.062C196.604 249.503 197.347 250.843 198.314 252.015L200.515 254.664L203.436 256.833Z" fill="#263238"></path><path d="M199.139 229.961L198.643 222.646C199.937 223.262 201.274 223.784 202.644 224.207C204.677 224.903 207.446 223.679 206.805 225.007C205.785 226.984 204.646 228.897 203.396 230.737L199.139 229.961Z" fill="#E8BFBF"></path><path d="M198.643 222.646L201.78 215.323L205.877 217.828C207.006 220.277 206.87 225.031 206.87 225.031C206.87 225.031 201.171 225.255 198.643 222.646Z" fill="#E8BFBF"></path><path d="M171.617 217.003C171.721 217.524 172.097 217.892 172.417 217.804C172.737 217.716 172.937 217.251 172.825 216.731C172.713 216.211 172.345 215.843 172.025 215.931C171.705 216.019 171.505 216.515 171.617 217.003Z" fill="#263238"></path><path d="M161.469 316.439L158.996 280.426C158.636 275.336 156.163 271.095 152.722 269.086C150.544 267.352 147.889 266.322 145.111 266.133C144.815 266.133 144.527 266.133 144.231 266.133C141.997 266.121 139.795 266.671 137.829 267.734C137.765 267.756 137.703 267.786 137.645 267.822C135.62 268.955 133.88 270.534 132.555 272.439C130.556 275.343 129.495 278.79 129.514 282.315C129.514 290.318 134.788 296.992 141.71 298.32L144.383 337.318C144.615 340.64 146.784 343.176 149.409 343.176H162.83L161.469 316.439Z" fill="#2B7DDD"></path><path opacity="0.1" d="M161.469 316.439L158.996 280.426C158.636 275.336 156.163 271.095 152.722 269.086C150.544 267.352 147.889 266.322 145.111 266.133C144.815 266.133 144.527 266.133 144.231 266.133C141.997 266.121 139.795 266.671 137.829 267.734C137.765 267.756 137.703 267.786 137.645 267.822C135.62 268.955 133.88 270.534 132.555 272.439C130.556 275.343 129.495 278.79 129.514 282.315C129.514 290.318 134.788 296.992 141.71 298.32L144.383 337.318C144.615 340.64 146.784 343.176 149.409 343.176H162.83L161.469 316.439Z" fill="white"></path><path d="M257.127 382.241C271.951 382.241 283.969 379.167 283.969 375.374C283.969 371.582 271.951 368.508 257.127 368.508C242.303 368.508 230.286 371.582 230.286 375.374C230.286 379.167 242.303 382.241 257.127 382.241Z" fill="#263238"></path><path opacity="0.3" d="M257.127 379.952C271.951 379.952 283.969 377.39 283.969 374.23C283.969 371.07 271.951 368.508 257.127 368.508C242.303 368.508 230.286 371.07 230.286 374.23C230.286 377.39 242.303 379.952 257.127 379.952Z" fill="white"></path><path d="M259.344 374.221H254.91L249.789 318.985H264.466L259.344 374.221Z" fill="#263238"></path><path d="M264.466 318.985C264.466 320.586 261.185 321.898 257.127 321.898C253.07 321.898 249.789 320.594 249.789 318.985C249.789 317.377 253.078 316.072 257.127 316.072C261.177 316.072 264.466 317.377 264.466 318.985Z" fill="#263238"></path><path opacity="0.7" d="M264.466 318.985C264.466 320.586 261.185 321.898 257.127 321.898C253.07 321.898 249.789 320.594 249.789 318.985C249.789 317.377 253.078 316.072 257.127 316.072C261.177 316.072 264.466 317.377 264.466 318.985Z" fill="white"></path><path opacity="0.7" d="M167.367 319.85C167.387 319.519 167.473 319.196 167.62 318.899C167.768 318.602 167.973 318.337 168.223 318.121C174.426 324.363 213.776 329.173 261.393 329.173C309.01 329.173 348.36 324.371 354.57 318.121C354.821 318.337 355.026 318.602 355.173 318.899C355.32 319.196 355.406 319.519 355.426 319.85C355.426 326.9 313.323 332.654 261.393 332.654C209.462 332.654 167.367 326.9 167.367 319.85Z" fill="white"></path><path opacity="0.7" d="M168.255 321.442C174.458 315.2 213.808 310.398 261.425 310.398C309.042 310.398 348.392 315.2 354.602 321.442C348.392 327.685 309.042 332.494 261.425 332.494C213.808 332.494 174.458 327.685 168.255 321.442Z" fill="white"></path><path opacity="0.7" d="M167.367 319.601C167.367 312.543 209.462 306.797 261.393 306.797C313.323 306.797 355.426 312.511 355.426 319.601C355.407 319.931 355.321 320.254 355.174 320.549C355.027 320.845 354.821 321.108 354.57 321.322C348.36 315.08 309.01 310.278 261.393 310.278C213.776 310.278 174.426 315.08 168.223 321.322C167.972 321.108 167.767 320.845 167.619 320.549C167.472 320.254 167.387 319.931 167.367 319.601Z" fill="white"></path><path d="M297.693 313.383L258.351 312.639C258.245 312.628 258.142 312.596 258.049 312.544C257.955 312.493 257.873 312.424 257.807 312.34C257.74 312.257 257.691 312.161 257.662 312.058C257.634 311.955 257.626 311.848 257.639 311.742C257.63 311.636 257.643 311.529 257.676 311.427C257.71 311.326 257.763 311.232 257.833 311.152C257.903 311.071 257.989 311.005 258.085 310.958C258.18 310.911 258.285 310.884 258.391 310.878L297.733 311.622C297.84 311.632 297.944 311.663 298.038 311.714C298.133 311.765 298.216 311.834 298.283 311.918C298.351 312.001 298.4 312.098 298.43 312.201C298.459 312.304 298.467 312.412 298.454 312.519C298.462 312.626 298.449 312.733 298.416 312.835C298.382 312.937 298.328 313.031 298.257 313.112C298.186 313.193 298.099 313.258 298.003 313.305C297.906 313.351 297.801 313.378 297.693 313.383Z" fill="#263238"></path><path opacity="0.2" d="M297.693 313.383L258.351 312.639C258.245 312.628 258.142 312.596 258.049 312.544C257.955 312.493 257.873 312.424 257.807 312.34C257.74 312.257 257.691 312.161 257.662 312.058C257.634 311.955 257.626 311.848 257.639 311.742C257.63 311.636 257.643 311.529 257.676 311.427C257.71 311.326 257.763 311.232 257.833 311.152C257.903 311.071 257.989 311.005 258.085 310.958C258.18 310.911 258.285 310.884 258.391 310.878L297.733 311.622C297.84 311.632 297.944 311.663 298.038 311.714C298.133 311.765 298.216 311.834 298.283 311.918C298.351 312.001 298.4 312.098 298.43 312.201C298.459 312.304 298.467 312.412 298.454 312.519C298.462 312.626 298.449 312.733 298.416 312.835C298.382 312.937 298.328 313.031 298.257 313.112C298.186 313.193 298.099 313.258 298.003 313.305C297.906 313.351 297.801 313.378 297.693 313.383Z" fill="white"></path><path d="M316.796 310.51L297.99 313.351C297.784 313.352 297.586 313.273 297.437 313.131C297.288 312.99 297.2 312.796 297.189 312.591C297.156 312.376 297.205 312.156 297.324 311.974C297.444 311.793 297.627 311.662 297.837 311.607L316.644 308.766C316.85 308.765 317.047 308.844 317.196 308.986C317.345 309.127 317.434 309.321 317.444 309.526C317.477 309.741 317.429 309.961 317.309 310.143C317.19 310.324 317.007 310.455 316.796 310.51Z" fill="#263238"></path><path d="M316.628 308.766H276.87L258.392 310.878L296.661 311.599L316.628 308.766Z" fill="#263238"></path><path opacity="0.6" d="M316.628 308.766H276.87L258.392 310.878L296.661 311.599L316.628 308.766Z" fill="white"></path><path opacity="0.5" d="M316.796 310.51L297.99 313.351C297.784 313.352 297.586 313.273 297.437 313.131C297.288 312.99 297.2 312.796 297.189 312.591C297.156 312.376 297.205 312.156 297.324 311.974C297.444 311.793 297.627 311.662 297.837 311.607L316.644 308.766C316.85 308.765 317.047 308.844 317.196 308.986C317.345 309.127 317.434 309.321 317.444 309.526C317.477 309.741 317.429 309.961 317.309 310.143C317.19 310.324 317.007 310.455 316.796 310.51Z" fill="white"></path><path d="M296.661 311.599L259.976 310.911C259.285 310.823 258.649 310.484 258.191 309.959C257.732 309.434 257.482 308.759 257.487 308.062L256.383 285.91C256.303 284.365 257.303 283.125 258.592 283.149L295.277 283.845C295.97 283.93 296.607 284.267 297.066 284.793C297.526 285.319 297.775 285.996 297.766 286.694L298.878 308.838C298.95 310.382 297.958 311.623 296.661 311.599Z" fill="#2B7DDD"></path><path opacity="0.2" d="M296.661 311.599L259.976 310.911C259.285 310.823 258.649 310.484 258.191 309.959C257.732 309.434 257.482 308.759 257.487 308.062L256.383 285.91C256.303 284.365 257.303 283.125 258.592 283.149L295.277 283.845C295.97 283.93 296.607 284.267 297.066 284.793C297.526 285.319 297.775 285.996 297.766 286.694L298.878 308.838C298.95 310.382 297.958 311.623 296.661 311.599Z" fill="white"></path><path d="M295.589 311.487L258.904 310.791C258.211 310.704 257.573 310.366 257.113 309.841C256.653 309.316 256.401 308.64 256.407 307.942L255.302 285.83C255.222 284.285 256.223 283.045 257.519 283.069L294.196 283.757C294.889 283.843 295.526 284.181 295.987 284.706C296.447 285.232 296.698 285.908 296.693 286.606L297.813 308.726C297.878 310.27 296.877 311.511 295.589 311.487Z" fill="#2B7DDD"></path><path opacity="0.6" d="M295.589 311.487L258.904 310.791C258.211 310.704 257.573 310.366 257.113 309.841C256.653 309.316 256.401 308.64 256.407 307.942L255.302 285.83C255.222 284.285 256.223 283.045 257.519 283.069L294.196 283.757C294.889 283.843 295.526 284.181 295.987 284.706C296.447 285.232 296.698 285.908 296.693 286.606L297.813 308.726C297.878 310.27 296.877 311.511 295.589 311.487Z" fill="white"></path><path d="M271.693 296.898C271.8 297.952 272.29 298.93 273.071 299.647C273.851 300.364 274.867 300.769 275.926 300.787C276.424 300.796 276.918 300.699 277.376 300.501C277.834 300.304 278.244 300.012 278.58 299.644C278.916 299.277 279.17 298.841 279.325 298.368C279.48 297.894 279.533 297.393 279.479 296.898C279.363 295.85 278.869 294.879 278.09 294.168C277.311 293.457 276.3 293.053 275.246 293.033C274.75 293.025 274.258 293.121 273.802 293.317C273.346 293.513 272.937 293.803 272.602 294.168C272.266 294.533 272.011 294.965 271.855 295.436C271.698 295.906 271.643 296.405 271.693 296.898Z" fill="white"></path></svg>