<svg xmlns="http://www.w3.org/2000/svg" width="30" height="27" viewBox="0 0 30 27" fill="none"><path d="M0.950195 26.8379V0.837891H15.0335V6.79622H29.8391V26.8379H0.950195ZM3.11686 24.6712H6.90853V20.8796H3.11686V24.6712ZM3.11686 18.7129H6.90853V14.9212H3.11686V18.7129ZM3.11686 12.7546H6.90853V8.96289H3.11686V12.7546ZM3.11686 6.79622H6.90853V3.00456H3.11686V6.79622ZM9.0752 24.6712H12.8669V20.8796H9.0752V24.6712ZM9.0752 18.7129H12.8669V14.9212H9.0752V18.7129ZM9.0752 12.7546H12.8669V8.96289H9.0752V12.7546ZM9.0752 6.79622H12.8669V3.00456H9.0752V6.79622ZM15.0335 24.6712H27.6724V8.96289H15.0335V12.7546H17.9224V14.9212H15.0335V18.7129H17.9224V20.8796H15.0335V24.6712ZM21.7141 14.9212V12.7546H23.8808V14.9212H21.7141ZM21.7141 20.8796V18.7129H23.8808V20.8796H21.7141Z" fill="#2B7DDD"></path></svg>