<svg xmlns="http://www.w3.org/2000/svg" width="19" height="22" viewBox="0 0 19 22" fill="none"><path d="M8.12933 16.9315L14.3314 10.7294L13.2752 9.67315L8.12933 14.819L5.33975 12.0294L4.2835 13.0856L8.12933 16.9315ZM2.3335 21.6711C1.90016 21.6711 1.521 21.5086 1.196 21.1836C0.870996 20.8586 0.708496 20.4794 0.708496 20.0461V1.62939C0.708496 1.19606 0.870996 0.816895 1.196 0.491895C1.521 0.166895 1.90016 0.00439453 2.3335 0.00439453H12.1106L18.0418 5.93564V20.0461C18.0418 20.4794 17.8793 20.8586 17.5543 21.1836C17.2293 21.5086 16.8502 21.6711 16.4168 21.6711H2.3335ZM11.2981 6.66689V1.62939H2.3335V20.0461H16.4168V6.66689H11.2981ZM2.3335 1.62939V6.66689V1.62939V20.0461V1.62939Z" fill="white"></path></svg>