<svg xmlns="http://www.w3.org/2000/svg" width="655" height="501" viewBox="0 0 655 501" fill="none"><path d="M527.504 134.268H502.058V83.8506H527.504V134.268Z" fill="#F5F5F5"></path><path d="M555.989 134.268H528.477V83.8506H555.989V134.268Z" fill="#F5F5F5"></path><path d="M528.477 137.791H555.989V186.508H528.477V137.791Z" fill="#F5F5F5"></path><path d="M559.514 37.2393H613.039V82.9595H589.457V38.2517H588.485V82.9595H559.514V37.2393Z" fill="#F5F5F5"></path><path d="M613.039 83.8506V134.268H589.458V83.8506H613.039Z" fill="#F5F5F5"></path><path d="M589.458 137.791H613.039V186.508H589.458V137.791Z" fill="#F5F5F5"></path><path d="M502.058 186.508V137.791H527.504V186.508H502.058Z" fill="#F5F5F5"></path><path d="M559.514 137.791H588.485V186.508H559.514V137.791Z" fill="#F5F5F5"></path><path d="M527.504 231.297H502.058V187.399H527.504V231.297Z" fill="#F5F5F5"></path><path d="M613.039 187.399V231.297H589.458V187.399H613.039Z" fill="#F5F5F5"></path><path d="M502.058 82.9595V37.2393H555.988V82.9595H528.476V38.2517H527.504V82.9595H502.058Z" fill="#F5F5F5"></path><path d="M559.514 231.297V187.399H588.485V231.297H559.514Z" fill="#F5F5F5"></path><path d="M528.477 187.399H555.989V231.297H528.477V187.399Z" fill="#F5F5F5"></path><path d="M588.485 134.268H559.514V83.8506H588.485V134.268Z" fill="#F5F5F5"></path><path d="M479.165 153.058H416.361V49.145H479.165V153.058Z" fill="#E0E0E0"></path><path d="M477.058 153.058H414.254V49.145H477.058V153.058Z" fill="#EBEBEB"></path><path d="M474.385 150.953H416.929V51.2515H474.385V150.953Z" fill="white"></path><path d="M463.202 137.994H427.87V64.21H463.202V137.994Z" fill="#EBEBEB"></path><path d="M427.869 111.874C427.788 104.989 433.988 98.2669 440.835 97.295C444.077 96.8495 447.521 97.4975 450.6 96.2421C456.03 94.0148 457.732 86.8065 463.202 84.6602L463.445 137.994H427.869V111.874Z" fill="#E0E0E0"></path><path d="M654.365 481.299C654.365 481.445 507.93 481.542 327.289 481.542C146.649 481.542 0.213867 481.445 0.213867 481.299C0.213867 481.152 146.649 481.055 327.289 481.055C507.93 481.055 654.365 481.152 654.365 481.299Z" fill="#263238"></path><path d="M569.364 481.299H222.331V411.023H569.364V481.299Z" fill="#AE7461"></path><path d="M593.469 415.12H198.226V407.073H593.469V415.12Z" fill="#AE7461"></path><path d="M593.517 415.12C593.517 415.267 505.393 415.364 396.725 415.364C288.009 415.364 199.885 415.267 199.885 415.12C199.885 414.974 288.009 414.876 396.725 414.876C505.393 414.876 593.517 414.974 593.517 415.12Z" fill="black"></path><path d="M569.705 458.572C569.705 458.719 492.12 458.865 396.433 458.865C300.745 458.865 223.209 458.719 223.209 458.572C223.209 458.475 300.745 458.329 396.433 458.329C492.12 458.329 569.705 458.475 569.705 458.572Z" fill="black"></path><path d="M569.022 435.652C569.022 435.798 491.438 435.895 395.799 435.895C300.111 435.895 222.526 435.798 222.526 435.652C222.526 435.505 300.111 435.408 395.799 435.408C491.438 435.408 569.022 435.505 569.022 435.652Z" fill="black"></path><path d="M311.093 259.833H112.957V95.8638H311.093V259.833Z" fill="white"></path><path d="M311.092 259.833C311.092 258.659 311.052 194.675 310.971 95.8641L311.092 96.0261C254.366 96.0261 186.214 96.0261 112.956 96.0261L113.118 95.8641C113.118 155.232 113.078 211.238 113.078 259.833L112.956 259.671C230.906 259.752 309.836 259.833 311.092 259.833C309.836 259.833 230.906 259.874 112.956 259.955H112.794V259.833C112.794 211.238 112.794 155.232 112.794 95.8641V95.7021H112.956C186.214 95.7426 254.366 95.7426 311.092 95.7426H311.254V95.8641C311.173 194.675 311.092 258.659 311.092 259.833Z" fill="#263238"></path><path d="M289.335 199.818H225.639C224.545 199.818 223.654 198.927 223.654 197.834V197.348C223.654 196.254 224.545 195.363 225.639 195.363H289.335C290.429 195.363 291.32 196.254 291.32 197.348V197.834C291.32 198.927 290.429 199.818 289.335 199.818Z" fill="#E0E0E0"></path><path d="M289.335 209.091H225.639C224.545 209.091 223.654 208.2 223.654 207.107V206.581C223.654 205.487 224.545 204.596 225.639 204.596H289.335C290.429 204.596 291.32 205.487 291.32 206.581V207.107C291.32 208.2 290.429 209.091 289.335 209.091Z" fill="#E0E0E0"></path><path d="M259.108 217.636H225.639C224.545 217.636 223.654 216.745 223.654 215.651V215.165C223.654 214.072 224.545 213.181 225.639 213.181H259.108C260.202 213.181 261.093 214.072 261.093 215.165V215.651C261.093 216.745 260.202 217.636 259.108 217.636Z" fill="#E0E0E0"></path><path d="M311.862 104.977H112.227C109.269 104.977 106.878 102.587 106.878 99.5905V98.2542C106.878 95.2979 109.269 92.8682 112.227 92.8682H311.862C314.82 92.8682 317.251 95.2979 317.251 98.2542V99.5905C317.251 102.587 314.82 104.977 311.862 104.977Z" fill="#263238"></path><path d="M215.671 197.268C215.671 197.308 197.316 197.349 174.626 197.349C151.976 197.349 133.581 197.308 133.581 197.268C133.581 197.227 151.976 197.187 174.626 197.187C197.316 197.187 215.671 197.227 215.671 197.268Z" fill="#E0E0E0"></path><path d="M215.671 206.338C215.671 206.379 197.316 206.419 174.626 206.419C151.976 206.419 133.581 206.379 133.581 206.338C133.581 206.257 151.976 206.217 174.626 206.217C197.316 206.217 215.671 206.257 215.671 206.338Z" fill="#E0E0E0"></path><path d="M215.671 215.369C215.671 215.41 197.316 215.45 174.626 215.45C151.976 215.45 133.581 215.41 133.581 215.369C133.581 215.329 151.976 215.288 174.626 215.288C197.316 215.288 215.671 215.329 215.671 215.369Z" fill="#E0E0E0"></path><path d="M215.671 224.44C215.671 224.48 197.316 224.521 174.626 224.521C151.976 224.521 133.581 224.48 133.581 224.44C133.581 224.399 151.976 224.359 174.626 224.359C197.316 224.359 215.671 224.399 215.671 224.44Z" fill="#E0E0E0"></path><path d="M215.671 233.511C215.671 233.551 197.316 233.592 174.626 233.592C151.976 233.592 133.581 233.551 133.581 233.511C133.581 233.47 151.976 233.43 174.626 233.43C197.316 233.43 215.671 233.47 215.671 233.511Z" fill="#E0E0E0"></path><path d="M192.171 242.461H183.986V216.138H192.171V242.461Z" fill="#2B7DDD"></path><path d="M207.609 242.461H199.464V207.472H207.609V242.461Z" fill="#2B7DDD"></path><path d="M149.14 242.461H140.955V230.15H149.14V242.461Z" fill="#2B7DDD"></path><path d="M162.674 242.461H154.489V226.465H162.674V242.461Z" fill="#2B7DDD"></path><path d="M176.692 242.461H168.507V221.808H176.692V242.461Z" fill="#2B7DDD"></path><path d="M216.442 242.502C216.442 242.502 216.32 242.502 216.077 242.502C215.807 242.502 215.429 242.502 214.942 242.502C213.97 242.502 212.552 242.502 210.729 242.502C207.041 242.502 201.693 242.542 195.088 242.542C181.92 242.542 163.686 242.542 143.589 242.542C140.105 242.542 136.66 242.542 133.419 242.542H133.338V242.502C133.338 227.234 133.338 213.749 133.338 204.111C133.378 199.252 133.378 195.404 133.378 192.732C133.378 191.395 133.378 190.342 133.378 189.654C133.405 189.303 133.419 189.033 133.419 188.844C133.419 188.682 133.419 188.601 133.419 188.601C133.419 188.601 133.419 188.682 133.419 188.844C133.419 189.033 133.419 189.303 133.419 189.654C133.419 190.342 133.419 191.395 133.459 192.732C133.459 195.404 133.459 199.252 133.459 204.111C133.459 213.749 133.5 227.234 133.5 242.502L133.419 242.421C136.66 242.421 140.105 242.421 143.589 242.421C163.686 242.421 181.92 242.421 195.088 242.421C201.693 242.461 207.041 242.461 210.729 242.461C212.552 242.461 213.97 242.461 214.942 242.461C215.429 242.461 215.807 242.461 216.077 242.461C216.32 242.488 216.442 242.502 216.442 242.502Z" fill="#263238"></path><path d="M137.47 201.843C137.47 201.883 136.579 201.924 135.444 201.924C134.31 201.924 133.418 201.883 133.418 201.843C133.418 201.802 134.31 201.762 135.444 201.762C136.579 201.762 137.47 201.802 137.47 201.843Z" fill="#263238"></path><path d="M137.47 210.469C137.47 210.509 136.579 210.55 135.444 210.55C134.31 210.55 133.418 210.509 133.418 210.469C133.418 210.388 134.31 210.388 135.444 210.388C136.579 210.388 137.47 210.388 137.47 210.469Z" fill="#263238"></path><path d="M137.47 219.054C137.47 219.135 136.579 219.175 135.444 219.175C134.31 219.175 133.418 219.135 133.418 219.054C133.418 219.013 134.31 218.973 135.444 218.973C136.579 218.973 137.47 219.013 137.47 219.054Z" fill="#263238"></path><path d="M137.47 227.68C137.47 227.721 136.579 227.761 135.444 227.761C134.31 227.761 133.418 227.721 133.418 227.68C133.418 227.64 134.31 227.599 135.444 227.599C136.579 227.599 137.47 227.64 137.47 227.68Z" fill="#263238"></path><path d="M247.074 129.395H186.215C184.553 129.395 183.257 128.059 183.257 126.439V125.67C183.257 124.05 184.553 122.713 186.215 122.713H247.074C248.735 122.713 250.032 124.05 250.032 125.67V126.439C250.032 128.059 248.735 129.395 247.074 129.395Z" fill="#2B7DDD"></path><path d="M285.121 146.323H135.323C134.229 146.323 133.338 145.432 133.338 144.338V143.852C133.338 142.719 134.229 141.828 135.323 141.828H285.121C286.215 141.828 287.106 142.719 287.106 143.852V144.338C287.106 145.432 286.215 146.323 285.121 146.323Z" fill="#E0E0E0"></path><path d="M285.121 157.014H135.323C134.229 157.014 133.338 156.123 133.338 155.03V154.503C133.338 153.41 134.229 152.519 135.323 152.519H285.121C286.215 152.519 287.106 153.41 287.106 154.503V155.03C287.106 156.123 286.215 157.014 285.121 157.014Z" fill="#E0E0E0"></path><path d="M285.121 167.705H135.323C134.229 167.705 133.338 166.814 133.338 165.721V165.194C133.338 164.101 134.229 163.21 135.323 163.21H285.121C286.215 163.21 287.106 164.101 287.106 165.194V165.721C287.106 166.814 286.215 167.705 285.121 167.705Z" fill="#E0E0E0"></path><path d="M168.183 178.355H134.755C133.661 178.355 132.77 177.464 132.77 176.371V175.885C132.77 174.791 133.661 173.9 134.755 173.9H168.183C169.277 173.9 170.168 174.791 170.168 175.885V176.371C170.168 177.464 169.277 178.355 168.183 178.355Z" fill="#E0E0E0"></path><path d="M385.697 135.043L388.869 129.532C387.698 126.119 387.405 122.315 388.235 118.511C390.626 107.587 401.458 100.662 412.388 103.051C423.367 105.49 430.247 116.316 427.856 127.24C425.465 138.164 414.633 145.09 403.703 142.651C399.116 141.676 395.261 139.189 392.48 135.872L385.697 135.043Z" fill="white"></path><path d="M385.697 135.043C385.697 135.043 385.844 135.059 386.136 135.092C386.462 135.124 386.901 135.173 387.454 135.238C388.625 135.368 390.3 135.547 392.48 135.775L392.382 135.921C392.382 135.921 392.382 135.905 392.382 135.872C392.382 135.872 392.382 135.823 392.431 135.775C392.464 135.775 392.496 135.791 392.529 135.823C394.236 137.823 396.871 140.115 400.629 141.578C402.483 142.358 404.63 142.846 406.923 142.944C409.217 143.09 411.656 142.797 414.096 142.017C416.536 141.237 418.976 139.969 421.074 138.164C423.221 136.36 425.026 134.019 426.295 131.288C428.832 125.923 428.881 118.95 425.661 113.195C424.05 110.318 421.757 107.83 419.073 106.123C416.438 104.368 413.413 103.295 410.437 102.905C407.411 102.563 404.435 102.905 401.8 103.783C399.116 104.66 396.725 106.075 394.773 107.782C390.87 111.195 388.771 115.682 388.137 119.632C387.503 123.631 388.137 127.045 388.967 129.483C388.967 129.516 388.967 129.549 388.967 129.581C387.926 131.337 387.112 132.686 386.527 133.629C386.267 134.084 386.071 134.442 385.941 134.702C385.779 134.929 385.697 135.043 385.697 135.043C385.697 135.043 385.762 134.929 385.892 134.702C386.023 134.442 386.218 134.084 386.478 133.629C387.031 132.686 387.812 131.304 388.82 129.483V129.532C387.942 127.094 387.259 123.631 387.893 119.584C388.527 115.584 390.626 111 394.578 107.538C396.53 105.782 398.97 104.368 401.653 103.441C404.386 102.563 407.411 102.173 410.485 102.563C413.511 102.953 416.585 104.026 419.268 105.782C422.001 107.538 424.343 110.074 425.953 113C429.223 118.852 429.223 125.972 426.588 131.483C425.319 134.214 423.465 136.555 421.318 138.408C419.122 140.261 416.682 141.578 414.194 142.358C411.705 143.139 409.217 143.382 406.874 143.236C404.581 143.09 402.385 142.602 400.531 141.822C396.725 140.31 394.09 137.92 392.431 135.921L392.529 135.823C392.577 135.872 392.529 135.921 392.529 135.921C392.496 135.953 392.48 135.97 392.48 135.97C390.268 135.677 388.576 135.449 387.405 135.287C386.852 135.222 386.429 135.157 386.136 135.092C385.844 135.059 385.697 135.043 385.697 135.043Z" fill="#263238"></path><path d="M402.629 122.901C402.678 123.973 401.8 124.851 400.726 124.851C399.653 124.851 398.823 124.022 398.774 122.949C398.774 121.876 399.653 120.999 400.726 120.999C401.751 120.999 402.629 121.828 402.629 122.901Z" fill="#263238"></path><path d="M410.388 122.851C410.388 123.924 409.51 124.802 408.436 124.802C407.411 124.802 406.533 123.924 406.533 122.9C406.484 121.827 407.363 120.949 408.436 120.949C409.51 120.949 410.339 121.778 410.388 122.851Z" fill="#263238"></path><path d="M418.048 121.827C418.585 122.754 418.292 123.924 417.365 124.461C416.438 124.997 415.267 124.704 414.73 123.778C414.194 122.851 414.486 121.681 415.414 121.144C416.341 120.608 417.512 120.9 418.048 121.827Z" fill="#263238"></path><path d="M477.725 305.147L457.182 307.196L457.084 289.688C457.084 289.688 455.621 289.541 454.694 282.031C453.766 274.521 452.01 261.792 452.01 261.792C460.598 257.013 471.138 257.159 479.579 262.085L480.848 262.768L477.725 305.147Z" fill="#FFBF9D"></path><path d="M479.434 272.326C479.531 272.229 484.606 270.181 484.996 275.35C485.387 280.52 479.97 279.886 479.922 279.739C479.922 279.593 479.434 272.326 479.434 272.326Z" fill="#FFBF9D"></path><path d="M455.865 281.543C455.914 281.69 450.693 283.494 449.961 278.374C449.229 273.253 454.109 273.984 454.255 273.984C454.255 273.984 455.865 281.397 455.865 281.543Z" fill="#FFBF9D"></path><path d="M481.092 271.546C480.75 275.935 481.19 278.179 480.75 281.154C480.067 285.835 478.116 289.591 474.114 292.322C470.113 295.101 464.355 295.687 460.354 293.004C457.621 291.102 455.523 288.859 454.791 285.689C454.059 282.519 453.035 276.813 452.693 273.546C451.961 267.694 450.937 262.134 450.937 262.134L468.015 257.16L478.506 261.744L481.092 271.546Z" fill="#263238"></path><path d="M468.601 295.345C470.211 295.004 471.431 294.467 471.528 294.614C471.577 294.711 470.406 295.443 468.698 295.833C466.99 296.223 465.624 296.028 465.624 295.882C465.624 295.784 466.99 295.735 468.601 295.345Z" fill="#263238"></path><path d="M453.621 273.692C454.353 272.18 454.011 270.278 452.84 269.059C451.864 268.035 450.303 267.547 449.376 266.425C448.595 265.499 448.302 264.133 448.693 262.963C449.083 261.792 450.108 260.817 451.328 260.476C450.693 258.964 451.23 257.013 452.596 255.989C453.963 255.014 456.012 254.965 457.378 255.989C457.476 253.746 459.037 251.649 461.184 250.917C463.38 250.186 465.966 250.868 467.43 252.526C468.992 250.868 471.383 249.99 473.676 250.186C476.018 250.332 478.165 251.649 479.385 253.502C480.41 255.014 480.751 256.818 481.142 258.574C481.483 260.329 481.093 262.914 481.044 264.67C480.849 269.4 481.093 274.472 481.044 278.959" fill="#263238"></path><path d="M456.646 266.913C457.183 267.206 457.963 267.401 458.793 267.255C459.622 267.108 460.55 266.621 461.135 265.792L461.428 265.401L461.525 265.84C461.818 266.767 462.745 267.547 463.868 267.84C464.99 268.132 466.307 267.791 467.283 267.011C468.21 266.23 468.796 265.206 469.04 264.231L469.138 263.743L469.43 264.133C470.406 265.255 471.919 265.743 473.236 265.645C474.505 265.596 475.579 264.914 476.164 264.182C476.847 263.499 477.091 262.768 477.238 262.231C477.384 261.744 477.384 261.451 477.433 261.451C477.433 261.451 477.482 261.744 477.384 262.28C477.335 262.817 477.042 263.597 476.408 264.377C475.774 265.158 474.7 265.938 473.236 266.035C471.87 266.182 470.162 265.694 469.089 264.426L469.479 264.329C469.235 265.401 468.601 266.523 467.625 267.352C466.551 268.279 464.99 268.62 463.721 268.279C462.453 267.937 461.428 267.011 461.135 265.938L461.525 265.987C460.842 266.962 459.769 267.45 458.842 267.547C457.915 267.694 457.085 267.45 456.5 267.108C455.963 266.816 455.572 266.426 455.377 266.133C455.182 265.84 455.133 265.694 455.133 265.694C455.182 265.645 455.524 266.328 456.646 266.913Z" fill="#455A64"></path><path d="M454.84 263.06C454.84 262.719 454.889 262.134 455.182 261.548C455.523 260.914 456.109 260.28 457.036 259.89C457.914 259.549 459.086 259.549 460.11 260.085L459.769 260.329C459.671 259.793 459.671 259.208 459.769 258.671C460.061 257.354 460.891 256.281 461.916 255.745C462.892 255.16 464.014 255.111 464.843 255.257C465.722 255.404 466.356 255.745 466.698 256.038C467.088 256.33 467.234 256.525 467.186 256.574C467.137 256.623 466.454 255.794 464.795 255.55C464.014 255.452 463.038 255.55 462.111 256.086C461.233 256.623 460.501 257.598 460.257 258.72C460.159 259.256 460.159 259.744 460.257 260.232L460.354 260.719L459.866 260.476C458.988 260.037 457.963 260.037 457.183 260.28C456.353 260.573 455.816 261.158 455.475 261.695C454.84 262.816 455.035 263.645 454.938 263.645C454.938 263.645 454.84 263.45 454.84 263.06Z" fill="#455A64"></path><path d="M465.624 261.89C465.527 261.451 465.576 260.72 465.917 260.086C466.064 259.744 466.259 259.452 466.454 259.208C466.6 258.964 466.747 258.769 466.991 258.574C467.186 258.379 467.479 258.379 467.625 258.427C467.771 258.525 467.771 258.623 467.771 258.623C467.723 258.671 467.43 258.525 467.235 258.818C466.991 259.11 466.649 259.695 466.356 260.281C466.064 260.866 465.966 261.451 465.966 261.841C466.015 262.28 466.112 262.524 466.064 262.573C466.015 262.573 465.771 262.378 465.624 261.89Z" fill="#455A64"></path><path d="M474.944 254.282C474.553 253.892 473.821 253.453 472.992 253.648C472.162 253.843 471.577 254.477 471.187 254.916C470.796 255.355 470.552 255.648 470.503 255.599C470.455 255.55 470.601 255.209 470.894 254.721C471.235 254.185 471.87 253.453 472.894 253.209C473.382 253.063 473.919 253.112 474.309 253.356C474.749 253.551 475.041 253.794 475.237 254.038C475.578 254.575 475.676 254.916 475.627 254.965C475.578 255.014 475.383 254.672 474.944 254.282Z" fill="#455A64"></path><path d="M476.359 273.497C476.847 271.497 476.896 269.839 477.042 269.839C477.188 269.839 477.335 271.546 476.847 273.595C476.359 275.643 475.481 277.106 475.334 277.057C475.237 277.008 475.871 275.448 476.359 273.497Z" fill="#455A64"></path><path d="M473.724 275.984C474.114 274.569 474.407 273.399 474.554 273.448C474.651 273.448 474.554 274.667 474.163 276.081C473.822 277.496 473.285 278.617 473.139 278.568C473.041 278.52 473.334 277.349 473.724 275.984Z" fill="#455A64"></path><path d="M460.111 284.762C461.233 287.006 462.843 288.371 462.697 288.469C462.648 288.566 460.843 287.298 459.671 284.957C458.403 282.665 458.452 280.52 458.549 280.52C458.696 280.52 458.891 282.568 460.111 284.762Z" fill="#455A64"></path><path d="M456.402 281.007C457.036 283.153 458.256 284.567 458.11 284.616C458.061 284.714 456.597 283.397 455.914 281.154C455.231 278.91 455.67 277.008 455.816 277.057C455.963 277.057 455.719 278.861 456.402 281.007Z" fill="#455A64"></path><path d="M449.522 464.571L441.422 446.527L454.987 440.967L461.77 459.987L456.646 464.864L449.522 464.571Z" fill="#FFBF9D"></path><path d="M461.769 459.987L466.99 472.521C466.99 472.521 460.647 475.106 458.207 476.13L446.057 480.714C446.057 480.714 445.227 479.397 444.984 478.032C444.3 474.228 449.521 464.572 449.521 464.572L454.791 462.718L461.769 459.987Z" fill="#455A64"></path><path d="M466.991 472.521L446.107 481.104L445.229 478.958L466.064 470.326L466.991 472.521Z" fill="white"></path><path d="M450.937 465.107C451.083 465.107 451.425 467.497 452.108 470.326C452.791 473.203 453.523 475.446 453.377 475.544C453.279 475.593 452.303 473.349 451.62 470.472C450.937 467.546 450.839 465.156 450.937 465.107Z" fill="#263238"></path><path d="M464.892 470.033C464.843 470.082 464.306 469.253 462.989 468.522C462.355 468.131 461.525 467.79 460.549 467.692C459.573 467.595 458.5 467.79 457.475 468.278C456.45 468.765 455.621 469.448 455.084 470.277C454.499 471.106 454.255 471.935 454.108 472.667C453.864 474.179 454.157 475.105 454.059 475.105C454.011 475.105 453.913 474.91 453.815 474.471C453.718 474.032 453.669 473.398 453.718 472.618C453.815 471.838 454.108 470.911 454.694 470.033C455.231 469.107 456.158 468.326 457.231 467.79C458.353 467.302 459.525 467.107 460.598 467.254C461.623 467.351 462.55 467.741 463.184 468.18C463.867 468.619 464.307 469.107 464.55 469.448C464.843 469.79 464.941 469.985 464.892 470.033Z" fill="#263238"></path><path d="M444.399 406.44L457.378 444.625L438.299 453.013C438.299 453.013 421.66 412.438 420.733 409.902C420.342 408.878 418.537 402.294 419.318 396.345C420.147 390.444 428.833 383.86 428.833 383.86L444.399 406.44Z" fill="#263238"></path><path d="M486.509 465.498L480.995 461.06L486.167 441.504L500.171 445.942L493.584 464.621L486.509 465.498Z" fill="#FFBF9D"></path><path d="M488.168 463.206L493.584 464.62C493.584 464.62 499.635 473.789 499.244 477.641C499.098 479.007 498.366 480.421 498.366 480.421L485.874 476.812C483.386 476.032 476.847 473.984 476.847 473.984L480.995 461.06L488.168 463.206Z" fill="#455A64"></path><path d="M477.579 471.741L499.098 478.568L498.366 480.812L476.847 473.984L477.579 471.741Z" fill="white"></path><path d="M492.218 465.254C492.315 465.254 492.413 467.693 491.974 470.619C491.584 473.594 490.754 475.886 490.656 475.837C490.51 475.788 491.047 473.447 491.486 470.57C491.925 467.644 492.071 465.254 492.218 465.254Z" fill="#263238"></path><path d="M478.702 471.302C478.702 471.302 478.75 471.058 478.994 470.716C479.238 470.326 479.629 469.838 480.263 469.351C480.897 468.863 481.727 468.424 482.8 468.18C483.825 467.985 484.996 468.034 486.167 468.473C487.29 468.912 488.266 469.643 488.9 470.472C489.534 471.302 489.876 472.228 490.071 472.96C490.217 473.74 490.169 474.374 490.12 474.813C490.071 475.252 489.973 475.496 489.973 475.496C489.876 475.496 490.071 474.52 489.681 473.057C489.485 472.326 489.144 471.497 488.558 470.765C487.924 469.985 487.046 469.351 485.972 468.961C484.947 468.57 483.825 468.473 482.849 468.668C481.922 468.814 481.093 469.204 480.458 469.643C479.238 470.521 478.799 471.399 478.702 471.302Z" fill="#263238"></path><path d="M482.02 444.137L493.535 401.319L504.173 381.421C504.173 381.421 515.152 387.956 516.957 395.174C517.982 399.417 508.467 429.897 508.467 429.897L501.879 450.526L482.02 444.137Z" fill="#263238"></path><path d="M505.344 323.241L500.171 388.98L433.273 387.469C433.419 385.664 433.858 379.08 434.395 370.351C434.005 370.009 432.394 368.351 430.931 365.23C429.32 361.719 428.588 341.139 428.588 326.752C428.588 312.316 438.494 307.635 438.494 307.635L455.767 298.856H477.677C491.876 302.807 501.391 312.073 501.391 312.073C504.124 315.145 505.539 319.144 505.344 323.241Z" fill="#46B314"></path><path d="M439.519 349.137C439.373 349.137 438.69 343.334 438.006 336.165C437.274 328.996 436.835 323.192 436.982 323.144C437.128 323.144 437.811 328.947 438.494 336.116C439.177 343.285 439.665 349.088 439.519 349.137Z" fill="black"></path><path d="M494.901 350.015C494.803 350.015 495.096 343.87 495.584 336.311C496.121 328.8 496.609 322.656 496.755 322.704C496.902 322.704 496.609 328.8 496.121 336.36C495.584 343.919 495.047 350.015 494.901 350.015Z" fill="black"></path><path d="M442.349 408.927C435.274 408.927 429.369 403.318 429.223 396.247C428.833 382.933 428.833 362.304 428.833 353.379C428.833 350.941 430.833 348.99 433.224 348.99H501.684C504.124 348.99 506.124 350.99 506.076 353.477C505.832 362.743 505.295 384.25 505.002 397.612C504.856 403.903 499.683 408.927 493.389 408.927H442.349Z" fill="#455A64"></path><path d="M426.784 481.835L422.88 481.347L430.931 415.461C431.419 411.609 434.64 408.683 438.494 408.683H496.171C499.977 408.683 503.246 411.609 503.685 415.461C505.637 431.019 511.004 480.86 511.053 481.396L507.149 481.786C507.101 481.299 501.733 431.457 499.781 415.949C499.586 414.047 498.025 412.633 496.171 412.633H438.494C436.64 412.633 435.079 414.047 434.835 415.949L426.784 481.835Z" fill="#E0E0E0"></path><path d="M426.783 481.835C426.783 481.835 426.832 481.494 426.93 480.811C426.995 480.096 427.109 479.088 427.271 477.788C427.564 475.105 428.052 471.253 428.638 466.229C429.809 456.183 431.565 441.699 433.712 423.703C434.005 421.46 434.282 419.168 434.542 416.827C434.64 416.242 434.688 415.608 434.884 415.023C435.127 414.437 435.469 413.901 435.957 413.462C436.396 413.023 436.982 412.682 437.616 412.536C438.25 412.389 438.885 412.487 439.519 412.438C444.464 412.438 449.603 412.438 454.938 412.438C465.673 412.438 477.091 412.438 489.144 412.389C490.64 412.389 492.153 412.389 493.682 412.389C494.463 412.389 495.227 412.389 495.975 412.389C496.805 412.389 497.634 412.584 498.317 413.072C499.001 413.511 499.537 414.194 499.781 414.974C500.123 415.754 500.074 416.535 500.172 417.315C500.367 418.875 500.546 420.436 500.708 421.997C501.424 428.271 502.14 434.676 502.855 441.211C504.319 454.281 505.832 467.839 507.393 481.787L507.101 481.543C508.369 481.396 509.687 481.25 511.053 481.153L510.809 481.396C510.614 479.592 510.419 477.69 510.175 475.739C508.76 462.913 507.345 450.38 505.978 438.236C505.328 432.157 504.661 426.174 503.978 420.29C503.815 418.827 503.652 417.364 503.49 415.901C503.392 414.437 502.904 413.072 502.075 411.95C501.245 410.829 500.074 409.951 498.757 409.414C498.122 409.17 497.439 409.024 496.756 408.975C496.073 408.927 495.341 408.927 494.609 408.927C483.191 408.927 472.261 408.927 461.867 408.927C456.695 408.927 451.653 408.927 446.741 408.927C444.301 408.927 441.894 408.91 439.519 408.878C438.934 408.878 438.348 408.878 437.811 408.927C437.226 409.024 436.64 409.122 436.152 409.317C435.03 409.658 434.103 410.292 433.322 411.072C432.493 411.853 431.907 412.828 431.517 413.852C431.126 414.876 431.077 415.949 430.931 417.071C430.671 419.249 430.411 421.395 430.15 423.508C429.63 427.702 429.126 431.701 428.638 435.505C427.711 443.162 426.832 450.087 426.1 456.134C424.588 468.18 423.514 476.861 422.929 481.348L422.88 481.299C424.197 481.494 425.173 481.591 425.856 481.689C426.474 481.787 426.783 481.835 426.783 481.835C426.783 481.835 426.491 481.787 425.856 481.738C425.222 481.64 424.197 481.543 422.88 481.396H422.831V481.348C423.368 476.861 424.393 468.18 425.856 456.086C426.588 450.038 427.418 443.162 428.345 435.505C428.8 431.669 429.288 427.654 429.809 423.46C430.036 421.346 430.297 419.201 430.59 417.022C430.736 415.949 430.785 414.779 431.175 413.706C431.565 412.633 432.2 411.609 433.029 410.78C433.859 409.951 434.884 409.317 436.006 408.927C436.543 408.732 437.177 408.634 437.762 408.537C438.348 408.488 438.934 408.488 439.519 408.488C441.894 408.488 444.301 408.488 446.741 408.488C451.653 408.488 456.695 408.488 461.867 408.488C472.261 408.488 483.191 408.488 494.609 408.439C495.341 408.488 496.024 408.439 496.756 408.488C497.488 408.537 498.22 408.732 498.952 408.975C500.318 409.512 501.538 410.438 502.465 411.658C503.343 412.877 503.88 414.34 503.978 415.852C504.14 417.282 504.303 418.745 504.466 420.241C505.149 426.126 505.832 432.108 506.515 438.188C507.833 450.331 509.248 462.864 510.663 475.691C510.907 477.592 511.102 479.543 511.297 481.348L511.346 481.591L511.102 481.64C509.736 481.787 508.418 481.933 507.198 482.03L506.905 482.079V481.835C505.344 467.936 503.831 454.379 502.368 441.309C501.652 434.774 500.936 428.353 500.221 422.045C500.058 420.485 499.895 418.924 499.733 417.364C499.586 416.632 499.635 415.803 499.342 415.12C499.098 414.437 498.659 413.852 498.025 413.462C497.439 413.023 496.707 412.828 495.975 412.877C495.227 412.877 494.463 412.877 493.682 412.877C492.153 412.877 490.64 412.877 489.144 412.877C477.091 412.877 465.673 412.828 454.938 412.828C449.603 412.828 444.464 412.828 439.519 412.828C438.885 412.828 438.25 412.779 437.714 412.926C437.128 413.072 436.64 413.365 436.201 413.706C435.762 414.145 435.42 414.584 435.225 415.169C435.03 415.657 435.03 416.242 434.932 416.876C434.64 419.217 434.347 421.525 434.054 423.801C431.809 441.797 430.004 456.329 428.784 466.327C428.15 471.35 427.662 475.203 427.32 477.836C427.158 479.137 427.027 480.128 426.93 480.811C426.832 481.494 426.783 481.835 426.783 481.835Z" fill="#263238"></path><path d="M498.122 397.027C498.122 397.027 498.138 397.125 498.17 397.32C498.122 397.515 498.219 397.807 498.122 398.149C498.024 398.929 497.39 400.002 496.17 400.831C493.779 402.587 489.583 403.611 484.459 404.294C474.163 405.562 459.769 405.415 444.056 403.903C442.105 403.708 440.104 403.367 438.347 402.392C436.591 401.368 435.468 399.612 434.932 397.807C434.346 396.003 434.2 394.15 434.005 392.345C433.842 390.557 433.679 388.818 433.517 387.127C432.931 380.3 432.59 374.155 432.394 368.985C432.199 363.816 432.15 359.622 432.15 356.744C432.15 355.281 432.199 354.16 432.199 353.428C432.199 353.071 432.199 352.778 432.199 352.55C432.232 352.355 432.248 352.258 432.248 352.258C432.248 352.258 432.248 352.355 432.248 352.55C432.28 352.778 432.297 353.071 432.297 353.428C432.297 354.209 432.313 355.314 432.346 356.744C432.443 359.622 432.541 363.816 432.785 368.985C432.98 374.155 433.37 380.3 434.005 387.078C434.167 388.802 434.33 390.541 434.493 392.297C434.688 394.101 434.834 395.905 435.371 397.661C435.908 399.368 436.981 401.026 438.591 401.953C440.25 402.879 442.153 403.221 444.105 403.416C459.817 404.879 474.163 405.123 484.41 403.952C489.534 403.318 493.681 402.294 496.072 400.685C497.243 399.904 497.878 398.88 498.024 398.149C498.122 397.807 498.073 397.515 498.073 397.32C498.105 397.125 498.122 397.027 498.122 397.027Z" fill="#263238"></path><path d="M352.809 381.567L352.224 407.072L320.458 406.487C320.702 403.464 337.244 397.66 337.244 397.66L336.951 381.323L352.809 381.567Z" fill="#263238"></path><path d="M347.1 396.441C347.686 396.636 348.125 397.319 347.93 397.953C347.783 398.587 347.1 398.977 346.466 398.831C345.88 398.684 345.344 397.855 345.588 397.221C345.783 396.636 346.661 396.197 347.198 396.49" fill="#E0E0E0"></path><path d="M320.458 406.488C320.312 405.464 321.727 404.878 321.727 404.878L352.175 404.488L352.224 407.073L320.458 406.488Z" fill="#455A64"></path><path d="M338.561 397.807C339.488 398.392 339.684 399.319 339.537 399.367C339.391 399.416 339.049 398.733 338.268 398.246C337.488 397.709 336.756 397.66 336.707 397.465C336.707 397.368 337.634 397.173 338.561 397.807Z" fill="white"></path><path d="M334.95 399.562C335.585 400.391 335.487 401.269 335.341 401.269C335.194 401.269 335.048 400.538 334.511 399.904C334.023 399.221 333.34 398.928 333.389 398.782C333.389 398.636 334.316 398.733 334.95 399.562Z" fill="white"></path><path d="M330.9 401.367C330.608 400.684 330.12 400.197 330.217 400.099C330.315 399.953 331.047 400.294 331.388 401.172C331.779 402.001 331.535 402.781 331.388 402.733C331.242 402.733 331.242 402.099 330.9 401.367Z" fill="white"></path><path d="M338.756 393.223C339.781 393.32 340.464 393.905 340.366 394.003C340.269 394.149 339.586 393.808 338.707 393.759C337.878 393.71 337.146 393.905 337.097 393.759C337 393.613 337.731 393.174 338.756 393.223Z" fill="white"></path><path d="M390.284 380.933C390.284 380.933 390.48 400.196 390.724 401.854C390.919 403.269 380.574 414.681 377.744 417.753C377.305 418.241 376.671 418.484 375.987 418.387C374.816 418.241 374.036 417.168 374.28 415.997L377.402 400.001L375.695 380.299L390.284 380.933Z" fill="#263238"></path><path d="M375.988 418.387L390.626 400.538L390.675 401.367C390.724 402.098 390.529 402.781 390.09 403.366C388.919 404.927 385.649 409.17 377.793 417.753C377.354 418.241 376.671 418.484 375.988 418.387Z" fill="#455A64"></path><g opacity="0.6"><path d="M386.087 394.49C386.478 394.003 387.356 394.1 387.795 394.539C388.186 395.027 388.039 395.905 387.551 396.295C387.063 396.636 386.283 396.539 385.941 396.051C385.599 395.563 385.697 394.783 386.185 394.393" fill="white"></path></g><path d="M379.939 409.463C379.842 409.56 379.354 408.536 378.134 408.048C376.914 407.561 375.841 407.902 375.841 407.756C375.792 407.707 376.036 407.561 376.524 407.463C376.963 407.366 377.646 407.366 378.28 407.658C378.964 407.951 379.451 408.39 379.695 408.78C379.939 409.17 379.988 409.463 379.939 409.463Z" fill="white"></path><path d="M378.72 412.193C378.622 412.291 377.939 411.706 376.915 411.462C375.89 411.218 375.012 411.462 374.963 411.364C374.914 411.267 375.841 410.779 377.012 411.072C378.183 411.316 378.818 412.145 378.72 412.193Z" fill="white"></path><path d="M382.379 405.902C382.282 406.049 381.257 405.073 379.647 404.586C378.085 404.098 376.67 404.244 376.67 404.098C376.621 404 378.085 403.659 379.793 404.195C381.501 404.732 382.428 405.854 382.379 405.902Z" fill="white"></path><path d="M382.331 399.904C382.282 400.001 381.159 399.611 379.744 399.66C378.329 399.709 377.207 400.099 377.158 400.001C377.109 399.904 378.232 399.27 379.744 399.221C381.257 399.172 382.379 399.806 382.331 399.904Z" fill="white"></path><path d="M381.989 394.1C381.94 394.198 380.769 393.612 379.305 393.807C377.793 393.905 376.768 394.734 376.719 394.636C376.67 394.588 376.866 394.295 377.305 394.002C377.744 393.71 378.427 393.417 379.257 393.368C380.037 393.271 380.769 393.417 381.257 393.612C381.745 393.807 381.989 394.051 381.989 394.1Z" fill="white"></path><path d="M379.257 392.686C379.208 392.686 379.159 392.442 379.159 391.954C379.208 391.467 379.305 390.735 379.647 389.955C379.842 389.565 380.037 389.077 380.574 388.784C380.818 388.638 381.257 388.638 381.501 388.882C381.745 389.126 381.843 389.467 381.843 389.76C381.94 391.028 380.916 392.296 379.549 392.588C378.134 392.832 376.768 392.101 376.134 391.077C376.036 390.784 375.89 390.443 376.036 390.101C376.182 389.76 376.573 389.613 376.866 389.613C377.451 389.662 377.841 390.004 378.183 390.199C378.915 390.735 379.354 391.272 379.647 391.662C379.891 392.052 379.988 392.296 379.988 392.344C379.94 392.393 379.403 391.369 378.037 390.491C377.646 390.247 377.256 390.004 376.817 390.004C376.622 389.955 376.475 390.052 376.378 390.247C376.329 390.394 376.378 390.638 376.524 390.881C377.061 391.711 378.281 392.393 379.452 392.149C380.623 391.954 381.501 390.833 381.452 389.809C381.452 389.565 381.355 389.321 381.208 389.175C381.111 389.028 380.916 389.028 380.72 389.126C380.33 389.272 380.135 389.711 379.94 390.052C379.208 391.564 379.354 392.686 379.257 392.686Z" fill="white"></path><path d="M376.134 240.382L378.671 259.402L385.454 324.752L391.309 392.832L373.011 392.637C373.011 392.637 363.789 341.138 363.008 334.066C362.129 326.166 351.199 277.495 351.199 277.495L349.54 277.105L355.152 391.32H335.146C335.146 391.32 320.312 269.838 319.97 265.449C319.141 254.086 321.532 244.771 321.532 244.771L376.134 240.382Z" fill="#455A64"></path><path d="M352.711 265.498C352.711 265.498 352.419 265.693 351.882 265.937C351.296 266.23 350.515 266.62 349.393 266.815C348.856 266.913 348.222 266.961 347.539 266.815C346.905 266.718 346.173 266.425 345.636 265.888C345.05 265.352 344.66 264.621 344.465 263.84C344.221 263.109 344.074 262.28 343.928 261.451C343.294 258.183 342.855 255.159 342.562 252.965C342.464 251.892 342.367 251.014 342.318 250.38C342.269 249.746 342.269 249.405 342.318 249.405C342.318 249.405 342.415 249.746 342.513 250.38C342.611 251.063 342.741 251.908 342.903 252.916C343.196 255.111 343.684 258.086 344.318 261.353C344.66 263.011 344.855 264.669 345.88 265.645C346.905 266.571 348.32 266.669 349.344 266.522C350.418 266.376 351.247 266.035 351.784 265.791C352.37 265.596 352.711 265.45 352.711 265.498Z" fill="#263238"></path><path d="M346.661 249.99C346.661 249.99 346.807 249.892 347.1 249.892C347.344 249.844 347.783 249.941 348.222 250.234C348.613 250.526 349.052 251.063 349.052 251.794C349.101 252.526 348.515 253.209 347.783 253.501C347.051 253.794 346.124 253.599 345.685 253.062C345.197 252.477 345.197 251.794 345.295 251.307C345.392 250.819 345.685 250.478 345.88 250.331C346.124 250.136 346.271 250.136 346.271 250.136C346.319 250.185 345.734 250.478 345.587 251.404C345.539 251.794 345.587 252.38 345.978 252.77C346.319 253.209 347.002 253.355 347.637 253.111C348.222 252.867 348.662 252.331 348.662 251.794C348.662 251.209 348.369 250.77 348.027 250.478C347.344 249.892 346.661 250.087 346.661 249.99Z" fill="#263238"></path><path d="M378.379 258.232C378.379 258.28 378.135 258.28 377.696 258.329C377.256 258.378 376.622 258.378 375.841 258.378C374.231 258.28 372.035 257.89 369.791 256.964C367.546 256.037 365.741 254.72 364.618 253.647C364.033 253.111 363.594 252.623 363.301 252.282C363.008 251.94 362.862 251.745 362.911 251.697C362.959 251.648 363.594 252.379 364.814 253.404C365.985 254.428 367.79 255.647 369.986 256.573C372.182 257.5 374.329 257.939 375.841 258.037C377.403 258.232 378.379 258.134 378.379 258.232Z" fill="#263238"></path><path d="M331.144 249.697C331.193 249.746 330.851 250.526 330.071 251.746C329.339 252.965 328.168 254.525 326.606 256.037C325.045 257.549 323.435 258.671 322.215 259.402C320.995 260.085 320.165 260.426 320.165 260.378C320.116 260.329 320.897 259.89 322.068 259.158C323.239 258.378 324.801 257.208 326.313 255.745C327.826 254.281 329.046 252.721 329.827 251.599C330.656 250.429 331.047 249.697 331.144 249.697Z" fill="#263238"></path><path d="M344.612 110.61L345.392 110.561C353.444 110.073 360.47 115.877 361.593 123.826C362.617 131.287 363.642 139.48 363.837 143.479C364.228 151.77 356.03 153.526 356.03 153.526L356.323 156.891C356.811 162.45 352.663 167.327 347.1 167.815C341.586 168.254 336.756 164.206 336.219 158.744L333.291 127.971C332.071 119.437 335.975 111.585 344.612 110.61Z" fill="#FFBF9D"></path><path d="M356.177 155.526C347.93 156.745 345.051 150.941 345.051 150.941C350.809 154.111 356.079 153.526 356.079 153.526L356.177 155.526Z" fill="#FF9A6C"></path><path d="M359.251 131.531C359.348 132.165 358.86 132.751 358.177 132.799C357.543 132.897 356.957 132.409 356.909 131.824C356.86 131.19 357.348 130.605 357.982 130.556C358.616 130.459 359.202 130.897 359.251 131.531Z" fill="#263238"></path><path d="M360.031 128.02C359.885 128.166 358.958 127.532 357.689 127.63C356.42 127.679 355.542 128.41 355.395 128.264C355.298 128.166 355.444 127.874 355.835 127.581C356.225 127.24 356.859 126.947 357.689 126.898C358.47 126.85 359.153 127.093 359.543 127.386C359.982 127.63 360.129 127.922 360.031 128.02Z" fill="#263238"></path><path d="M348.271 132.312C348.32 132.946 347.832 133.531 347.198 133.58C346.563 133.677 345.978 133.19 345.929 132.604C345.831 131.97 346.319 131.385 347.002 131.336C347.637 131.239 348.222 131.678 348.271 132.312Z" fill="#263238"></path><path d="M347.54 128.946C347.393 129.093 346.466 128.507 345.198 128.605C343.929 128.654 343.051 129.337 342.904 129.19C342.807 129.141 342.953 128.849 343.343 128.507C343.734 128.215 344.368 127.873 345.198 127.825C345.978 127.825 346.662 128.069 347.052 128.312C347.442 128.605 347.589 128.898 347.54 128.946Z" fill="#263238"></path><path d="M352.712 138.115C352.712 138.066 353.492 137.871 354.761 137.627C355.054 137.579 355.395 137.481 355.444 137.286C355.493 137.042 355.347 136.701 355.151 136.311C354.794 135.563 354.419 134.766 354.029 133.921C352.516 130.458 351.394 127.63 351.492 127.581C351.638 127.484 353.004 130.263 354.566 133.677C354.924 134.522 355.265 135.335 355.591 136.116C355.737 136.506 355.981 136.896 355.835 137.384C355.786 137.627 355.542 137.822 355.347 137.871C355.151 137.969 354.956 137.969 354.81 138.018C353.492 138.164 352.712 138.213 352.712 138.115Z" fill="#263238"></path><path d="M347.588 123.972C347.49 124.314 346.222 124.216 344.709 124.46C343.245 124.704 342.025 125.24 341.83 124.899C341.732 124.801 341.928 124.46 342.416 124.07C342.855 123.728 343.587 123.338 344.514 123.192C345.392 123.046 346.222 123.143 346.758 123.338C347.344 123.533 347.637 123.777 347.588 123.972Z" fill="#263238"></path><path d="M359.348 124.363C359.153 124.655 358.275 124.412 357.201 124.46C356.128 124.46 355.249 124.753 355.054 124.46C354.957 124.314 355.054 124.021 355.445 123.729C355.835 123.436 356.469 123.192 357.152 123.144C357.884 123.144 358.519 123.339 358.909 123.631C359.299 123.924 359.446 124.216 359.348 124.363Z" fill="#263238"></path><path d="M360.568 120.071C360.568 120.071 358.079 115.048 355.542 113.975C352.419 112.658 351.297 116.072 348.369 115.438C345.441 114.804 342.465 113.536 339.635 115.974C336.561 118.559 338.171 120.217 338.171 123.875C338.22 138.847 335.731 143.187 334.56 136.213C334.414 135.482 332.267 134.994 331.779 131.727C331.096 127.581 330.656 122.461 331.437 119.437C332.071 116.852 333.389 115.048 335.877 112.951C339.781 109.683 345.344 109.293 349.15 109.488C353.005 109.634 360.568 113.585 360.568 120.071Z" fill="#263238"></path><path d="M335.682 142.163C335.682 142.309 330.119 144.016 329.632 138.359C329.339 135.14 330.998 134.165 332.51 133.97C333.779 133.775 334.95 134.701 335.097 135.969C335.292 138.359 335.682 142.065 335.682 142.163Z" fill="#FFBF9D"></path><path d="M334.122 140.456C333.926 140.602 333.634 140.748 333.194 140.651C332.365 140.505 331.682 139.48 331.535 138.359C331.487 137.774 331.584 137.237 331.779 136.749C331.926 136.262 332.267 135.872 332.706 135.774C332.902 135.725 333.097 135.774 333.243 135.872C333.39 135.969 333.487 136.115 333.536 136.213C333.585 136.457 333.487 136.554 333.487 136.554C333.438 136.554 333.487 136.408 333.39 136.262C333.292 136.115 333.048 135.969 332.755 136.067C332.462 136.115 332.219 136.457 332.121 136.896C331.975 137.286 331.877 137.774 331.975 138.31C332.072 139.334 332.658 140.212 333.292 140.407C333.585 140.456 333.878 140.407 334.024 140.309C334.17 140.212 334.219 140.114 334.268 140.163C334.268 140.163 334.268 140.261 334.122 140.456Z" fill="#FF9A6C"></path><path d="M361.349 118.9C359.69 119.925 357.299 119.144 356.274 117.486C355.054 118.657 352.663 118.12 352.029 116.56C351.151 117.633 349.54 117.632 348.223 117.194C346.954 116.706 345.783 115.877 344.514 115.487C343.246 115.048 341.831 115.097 340.513 115.487C341.44 116.901 340.318 118.949 339.196 121.193C338.561 122.461 337.732 123.777 337.195 125.094C336.658 126.411 335.195 127.484 333.828 127.045C332.706 126.655 332.12 125.484 331.633 124.411C330.754 122.461 329.876 120.266 330.51 118.169C330.901 116.803 331.828 114.853 332.95 113.975C334.755 112.561 335.341 112.853 335.341 112.853C335.341 112.853 335.439 110.561 337.146 109.439C339.391 107.879 341.44 109.001 341.44 109.001C341.44 109.001 342.66 106.221 346.369 106.221C349.248 106.269 349.98 107.684 351.883 107.879C353.054 107.976 354.274 107.489 355.347 107.879C357.201 108.61 357.25 111.341 358.86 112.561C359.69 113.243 360.91 113.292 361.788 113.975C363.35 115.145 363.008 117.925 361.349 118.9Z" fill="#263238"></path><path d="M331.096 123.095C331.144 123.046 331.388 123.583 331.73 124.363C331.925 124.753 332.218 125.241 332.657 125.533C333.145 125.826 333.779 125.875 334.414 125.728C335.097 125.631 335.682 125.338 336.121 124.997C336.609 124.655 336.951 124.265 337.244 123.973C337.781 123.29 338.122 122.802 338.171 122.851C338.22 122.851 337.976 123.387 337.439 124.119C337.146 124.46 336.805 124.899 336.317 125.241C335.829 125.631 335.194 125.923 334.511 126.07C333.828 126.167 333.047 126.167 332.511 125.777C331.974 125.436 331.73 124.899 331.535 124.46C331.193 123.631 331.047 123.095 331.096 123.095Z" fill="#455A64"></path><path d="M331.291 127.435C331.339 127.435 331.681 127.825 332.413 128.069C332.803 128.215 333.242 128.264 333.779 128.215C334.267 128.117 334.804 127.922 335.341 127.581C336.365 126.947 337 126.02 337.439 125.338C337.927 124.704 338.171 124.265 338.219 124.265C338.268 124.313 338.073 124.752 337.683 125.484C337.244 126.167 336.609 127.191 335.487 127.874C334.95 128.215 334.365 128.459 333.828 128.508C333.242 128.556 332.754 128.459 332.315 128.312C331.534 127.971 331.291 127.483 331.291 127.435Z" fill="#455A64"></path><path d="M354.078 140.993L353.834 142.358C353.639 143.675 352.566 144.65 351.248 144.602C351.248 144.602 351.232 144.602 351.199 144.602C350.516 144.602 349.833 144.309 349.394 143.772C348.955 143.236 348.711 142.797 348.76 142.114C348.857 141.432 348.857 140.846 349.101 140.212C349.199 140.31 352.761 140.603 354.078 140.993Z" fill="#FF9A6C"></path><path d="M352.126 144.406C351.882 144.455 351.443 144.553 350.906 144.504C350.37 144.455 349.687 144.211 349.247 143.626C348.759 143.041 348.515 142.26 348.564 141.431C348.564 140.944 348.711 140.505 348.906 140.115L348.955 140.017L349.101 140.066C350.37 140.261 351.443 140.456 352.224 140.602C353.005 140.749 353.493 140.846 353.493 140.895C353.493 140.944 353.005 140.895 352.224 140.797C351.394 140.7 350.321 140.554 349.003 140.358L349.199 140.31C349.052 140.651 348.906 141.041 348.906 141.431C348.857 142.212 349.052 142.943 349.491 143.431C349.882 143.919 350.418 144.211 350.906 144.26C351.443 144.357 351.834 144.309 352.126 144.26C352.419 144.211 352.565 144.211 352.565 144.211C352.565 144.26 352.419 144.309 352.126 144.406Z" fill="#263238"></path><path d="M334.462 138.505C334.267 139.041 333.974 139.578 333.438 139.724C332.95 139.919 332.364 139.627 332.071 139.188C331.779 138.749 331.779 138.164 331.876 137.676C332.071 136.944 332.218 136.457 332.852 136.067C333.34 135.725 334.17 136.067 334.462 136.603C334.755 137.188 334.658 137.871 334.462 138.505Z" fill="#455A64"></path><path d="M344.514 146.455C342.757 146.455 341.001 146.113 339.439 145.382C336.219 143.919 333.73 141.041 332.754 137.676L333.681 137.384C334.609 140.505 336.902 143.138 339.83 144.455C342.757 145.821 346.271 145.821 349.198 144.455L349.589 145.382C348.027 146.113 346.271 146.455 344.514 146.455Z" fill="#455A64"></path><path d="M350.711 146.503L348.662 146.893C347.832 147.04 347.002 146.503 346.856 145.674V145.625C346.661 144.747 347.246 143.918 348.076 143.772L350.125 143.382C350.955 143.187 351.784 143.772 351.931 144.601V144.65C352.126 145.479 351.54 146.308 350.711 146.503Z" fill="#455A64"></path><path d="M333.34 137.237C333.731 136.896 334.072 136.555 334.316 136.067C334.511 135.628 334.609 135.092 334.316 134.653C334.121 134.262 333.682 134.067 333.243 134.019C332.803 133.97 332.364 134.067 331.925 134.214C331.632 134.262 331.242 134.36 331.047 134.116C330.852 133.872 330.949 133.531 331.144 133.336C331.437 132.897 331.925 132.702 332.462 132.653C332.95 132.604 333.487 132.751 333.926 132.897C334.511 133.141 335.048 133.433 335.341 133.921C335.682 134.506 335.682 135.287 335.487 135.921C335.243 136.555 334.804 137.091 334.316 137.579" fill="#455A64"></path><path d="M320.165 195.759C320.165 195.759 316.066 215.608 314.017 222.241C311.918 228.922 305.331 227.752 305.331 227.752C295.474 230.336 293.767 216.827 293.767 216.827L299.134 209.415C299.134 209.415 304.16 184.201 306.014 177.325C307.82 170.449 314.846 167.62 315.334 167.62L320.165 195.759Z" fill="#E0E0E0"></path><path d="M347.832 163.085L356.42 156.55L359.397 161.085L378.427 168.791L374.377 190.493C374.474 192.053 376.28 234.238 375.841 228.19L378.622 237.895C379.061 239.505 379.256 241.114 379.061 242.723C378.817 244.528 378.232 246.186 376.914 246.235L324.264 247.795C320.848 247.893 318.116 245.016 318.36 241.651L320.165 216.193L315.334 167.62L332.12 161.719L335.829 156.111L347.832 163.085Z" fill="#E0E0E0"></path><path d="M378.427 168.791C378.427 168.791 382.282 172.156 382.916 174.74C383.55 177.276 397.36 207.171 397.36 207.171L404.191 209.024L406.045 212.78C408.192 217.266 407.021 222.777 403.02 225.752C402.792 225.947 402.548 226.126 402.288 226.288C398.628 228.483 391.943 228.385 388.088 223.801C384.38 219.51 373.645 203.904 373.645 203.904V184.884L378.427 168.791Z" fill="#E0E0E0"></path><path d="M400.921 210.147L410.778 204.343L415.511 210.147L414.535 212.975L401.8 222.388C401.8 222.388 399.458 220.632 398.872 217.316C398.286 213.756 400.921 210.147 400.921 210.147Z" fill="#FFBF9D"></path><path d="M397.799 207.171C397.799 207.268 396.92 207.171 395.7 207.561C394.48 207.951 392.87 208.927 391.602 210.438C390.333 211.95 389.552 213.608 389.015 214.779C388.479 215.998 388.137 216.73 388.088 216.73C387.991 216.681 388.235 215.9 388.674 214.632C389.162 213.413 389.894 211.658 391.211 210.097C392.577 208.488 394.285 207.561 395.603 207.22C396.92 206.927 397.799 207.122 397.799 207.171Z" fill="#263238"></path><path d="M410.583 207.561C410.485 207.415 409.753 203.221 412.974 200.49C416.145 197.759 419.024 196.783 420.732 196.052C422.44 195.272 426.051 192.248 426.685 192.979C427.319 193.711 427.612 194.784 426.685 196.101C425.807 197.466 420.586 199.417 421.318 201.075C421.61 201.758 423.221 201.904 423.221 201.904C423.221 201.904 429.515 202.294 432.15 202.099C434.785 201.855 437.176 202.343 437.03 203.27C436.883 204.147 436.395 204.684 434.2 204.83C432.004 205.025 428.491 204.879 428.295 205.415C428.1 205.903 428.832 206.196 430.101 206.147C431.369 206.049 437.371 206.049 437.81 206.732C438.201 207.415 437.859 208.439 437.078 208.683L435.663 209.171C435.663 209.171 436.493 210.292 435.81 210.926C435.127 211.56 433.565 211.365 433.565 211.365L425.612 211.121C425.612 211.121 425.124 211.609 425.368 211.95C425.612 212.243 431.809 211.804 431.857 212.487C431.906 213.17 432.492 213.511 430.589 213.95C428.734 214.389 424.05 214.389 422.391 213.95C420.683 213.511 413.657 213.17 413.657 213.17L410.583 207.561Z" fill="#FFBF9D"></path><path d="M303.673 218.827C302.551 222.046 300.062 223.265 300.062 223.265L288.546 212.438L287.912 209.512L293.231 203.562L302.404 211.219C302.404 211.219 304.844 215.56 303.673 218.827Z" fill="#FFBF9D"></path><path d="M289.424 212.731C289.424 212.731 282.398 212.195 280.641 212.439C278.933 212.731 274.298 212.146 272.492 211.512C270.687 210.829 271.272 210.585 271.37 209.903C271.516 209.22 277.665 210.39 277.909 210.098C278.153 209.805 277.762 209.269 277.762 209.269L269.857 208.586C269.857 208.586 268.296 208.635 267.662 207.903C267.076 207.22 268.003 206.147 268.003 206.147L266.686 205.513C265.905 205.172 265.71 204.099 266.198 203.465C266.686 202.831 272.639 203.563 273.907 203.807C275.127 204.05 275.908 203.807 275.762 203.27C275.664 202.782 272.102 202.49 269.955 202.051C267.808 201.612 267.369 201.075 267.369 200.149C267.32 199.222 269.711 198.978 272.346 199.515C274.932 200.051 281.178 200.393 281.178 200.393C281.178 200.393 282.544 200.442 282.642 199.125C282.788 197.32 279.177 195.662 278.445 194.248C277.713 192.834 278.104 191.81 278.787 191.127C279.519 190.493 282.739 193.907 284.35 194.882C286.009 195.809 288.741 197.125 291.571 200.198C294.401 203.27 293.23 207.318 293.084 207.513L289.424 212.731Z" fill="#FFBF9D"></path><path d="M358.908 162.5C358.957 162.548 358.323 163.182 357.249 164.207C356.225 165.231 354.761 166.645 353.248 168.303C352.923 168.661 352.614 169.002 352.321 169.327L352.126 169.571L351.931 169.327C350.76 167.815 349.735 166.45 349.003 165.475C348.32 164.499 347.881 163.914 347.929 163.865C347.978 163.816 348.466 164.353 349.247 165.279C350.028 166.206 351.101 167.523 352.321 168.986H351.931C352.223 168.661 352.533 168.319 352.858 167.962C354.419 166.304 355.883 164.889 357.005 163.963C358.128 162.987 358.86 162.451 358.908 162.5Z" fill="#263238"></path><path d="M316.456 180.495C316.456 180.495 316.554 180.885 316.7 181.519C316.847 182.202 317.042 183.177 317.237 184.397C317.627 186.786 318.018 190.151 318.359 193.858C318.701 197.564 318.945 200.929 319.14 203.367C319.238 204.473 319.303 205.432 319.335 206.245C319.384 206.928 319.384 207.269 319.384 207.318C319.335 207.318 319.286 206.928 319.14 206.245C319.043 205.562 318.945 204.587 318.799 203.367C318.506 200.978 318.213 197.613 317.871 193.906C317.53 190.2 317.188 186.835 316.847 184.445C316.717 183.307 316.603 182.348 316.505 181.568C316.408 180.885 316.408 180.495 316.456 180.495Z" fill="#263238"></path><path d="M374.67 178.837C374.719 178.837 374.768 179.276 374.865 180.105C374.963 180.934 375.06 182.153 375.109 183.665C375.304 186.64 375.402 190.785 375.402 195.369C375.402 199.905 375.402 204.001 375.402 207.074C375.402 208.504 375.402 209.691 375.402 210.634C375.402 211.463 375.353 211.951 375.353 211.951C375.304 211.951 375.255 211.463 375.207 210.634C375.158 209.805 375.06 208.586 375.011 207.074C374.914 204.099 374.914 199.954 374.865 195.369C374.865 190.785 374.816 186.64 374.768 183.665C374.735 182.234 374.702 181.048 374.67 180.105C374.67 179.276 374.67 178.837 374.67 178.837Z" fill="#263238"></path><path d="M308.893 221.753C308.795 221.753 308.649 220.778 308.356 219.168C308.063 217.608 307.527 215.413 306.356 213.267C305.184 211.121 303.477 209.61 302.062 208.878C300.647 208.147 299.622 208.049 299.671 207.951C299.671 207.903 299.915 207.903 300.354 208C300.842 208.049 301.476 208.244 302.208 208.585C303.721 209.268 305.575 210.78 306.795 213.023C308.063 215.218 308.503 217.51 308.698 219.119C308.942 220.729 308.942 221.753 308.893 221.753Z" fill="#263238"></path><path d="M311.285 211.707C311.187 211.805 309.674 210.293 307.283 209.513C304.892 208.635 302.745 208.976 302.745 208.781C302.697 208.684 304.892 208.147 307.43 209.025C309.967 209.854 311.382 211.659 311.285 211.707Z" fill="#263238"></path><path d="M349.052 246.283C349.019 246.283 349.003 246.007 349.003 245.454C348.97 244.869 348.954 244.073 348.954 243.065C348.905 240.968 348.857 237.944 348.759 234.286C348.613 226.825 348.369 216.632 348.076 205.367C347.832 194.053 347.686 183.811 347.686 176.398C347.686 172.692 347.734 169.668 347.783 167.62C347.816 166.612 347.832 165.816 347.832 165.23C347.864 164.678 347.881 164.401 347.881 164.401C347.913 164.401 347.93 164.678 347.93 165.23C347.962 165.816 347.978 166.612 347.978 167.62C347.978 169.766 348.027 172.741 348.027 176.398C348.125 183.811 348.32 194.053 348.613 205.318C348.857 216.632 349.052 226.874 349.149 234.286C349.149 237.993 349.149 240.968 349.149 243.065C349.117 244.073 349.101 244.869 349.101 245.454C349.101 246.007 349.084 246.283 349.052 246.283Z" fill="#263238"></path><path d="M301.965 210.878C302.013 210.829 302.697 211.414 303.331 212.633C303.624 213.219 303.917 213.999 304.112 214.877C304.258 215.803 304.258 216.779 304.112 217.852C304.014 218.876 303.721 219.851 303.282 220.68C302.843 221.461 302.209 222.095 301.672 222.485C300.501 223.314 299.574 223.265 299.574 223.216C299.574 223.119 300.403 223.021 301.428 222.192C301.965 221.802 302.453 221.217 302.843 220.436C303.233 219.705 303.477 218.778 303.624 217.754C303.77 216.779 303.77 215.803 303.624 214.974C303.477 214.145 303.233 213.365 302.989 212.78C302.453 211.561 301.916 210.927 301.965 210.878Z" fill="#263238"></path><path d="M403.654 223.46C403.654 223.509 403.41 223.411 403.069 223.265C402.678 223.119 402.141 222.826 401.556 222.387C400.385 221.509 399.019 219.803 398.531 217.51C398.14 215.218 398.775 213.121 399.506 211.902C399.897 211.219 400.287 210.78 400.58 210.488C400.873 210.195 401.068 210.049 401.068 210.098C401.166 210.146 400.482 210.78 399.848 212.048C399.214 213.316 398.628 215.267 399.067 217.413C399.458 219.559 400.726 221.168 401.8 222.095C402.873 223.021 403.703 223.363 403.654 223.46Z" fill="#263238"></path><path d="M366.033 201.173C366.082 201.173 365.594 201.466 364.764 201.904C363.935 202.343 362.715 202.977 361.202 203.758C358.177 205.269 353.932 207.22 349.15 209.268C344.368 211.268 339.976 212.926 336.805 214.048C335.194 214.633 333.877 215.072 332.999 215.364C332.071 215.657 331.583 215.803 331.535 215.755C331.535 215.706 332.023 215.511 332.901 215.169C333.877 214.779 335.146 214.292 336.658 213.706C339.83 212.536 344.173 210.78 348.955 208.781C353.688 206.781 357.982 204.831 361.056 203.416C362.52 202.733 363.74 202.148 364.667 201.709C365.545 201.319 366.033 201.124 366.033 201.173Z" fill="#263238"></path><path d="M422.587 198.93C422.635 198.979 422.196 199.369 421.659 200.1C421.367 200.491 421.123 200.93 421.025 201.515C420.928 202.051 420.928 202.734 420.83 203.465C420.635 204.977 419.708 206.148 418.927 206.684C418.146 207.269 417.512 207.318 417.512 207.269C417.463 207.221 418 206.977 418.683 206.392C419.366 205.806 420.147 204.782 420.293 203.417C420.391 202.734 420.391 202.051 420.586 201.417C420.732 200.734 421.074 200.247 421.367 199.857C422.05 199.174 422.538 198.881 422.587 198.93Z" fill="#FF9A6C"></path><path d="M278.982 206.732C278.982 206.879 276.494 207.025 273.468 206.879C270.394 206.732 267.955 206.342 267.955 206.196C267.955 206.05 270.443 206.196 273.468 206.342C276.543 206.488 278.982 206.586 278.982 206.732Z" fill="#FF9A6C"></path><path d="M284.643 206.294C284.643 206.391 284.057 206.294 283.325 205.66C282.642 205.123 281.91 203.953 281.959 202.49C281.959 201.807 282.154 201.173 282.3 200.636C282.431 200.084 282.479 199.596 282.447 199.173C282.447 198.344 282.105 197.905 282.154 197.857C282.203 197.808 282.691 198.198 282.837 199.125C282.886 199.612 282.837 200.149 282.74 200.734C282.642 201.319 282.496 201.904 282.447 202.538C282.398 203.758 283.032 204.83 283.569 205.416C284.155 206.001 284.643 206.245 284.643 206.294Z" fill="#FF9A6C"></path><path d="M424.002 208.098C424.002 207.952 426.637 208.049 429.906 208.293C433.127 208.586 435.762 208.927 435.762 209.073C435.762 209.171 433.078 209.073 429.858 208.83C426.588 208.537 423.953 208.196 424.002 208.098Z" fill="#FF9A6C"></path><path d="M347.345 163.377C347.394 163.426 346.955 164.499 346.223 166.254C346.028 166.71 345.816 167.197 345.588 167.717C345.344 168.205 345.198 168.742 344.808 169.327C344.612 169.619 344.222 169.961 343.783 169.863C343.344 169.766 343.051 169.522 342.758 169.376C342.205 168.985 341.62 168.579 341.002 168.156C338.611 166.498 336.464 164.986 334.902 163.865C333.39 162.743 332.462 162.012 332.462 161.963C332.511 161.914 333.536 162.499 335.146 163.572C336.708 164.596 338.903 166.059 341.294 167.717C341.912 168.14 342.498 168.547 343.051 168.937C343.344 169.132 343.588 169.327 343.832 169.376C344.076 169.424 344.271 169.327 344.417 169.083C345.003 168.059 345.442 166.937 345.881 166.108C346.711 164.401 347.296 163.328 347.345 163.377Z" fill="#263238"></path><path d="M212.581 463.799V446.974L226.536 446.096L225.658 464.238L219.022 466.823L212.581 463.799Z" fill="#AE7461"></path><path d="M225.659 464.238V477.796C225.659 477.796 218.778 477.796 216.192 477.796L203.213 477.406C203.213 477.406 202.92 475.894 203.213 474.528C204.042 470.724 212.581 463.799 212.581 463.799L218.144 464.141L225.659 464.238Z" fill="#455A64"></path><path d="M226.829 404.107L227.268 454.436L210.434 454.387C210.434 454.387 203.798 405.911 203.749 405.131L226.829 404.107Z" fill="#263238"></path><path d="M225.609 478.333H203.066V475.992H225.609V478.333Z" fill="#E0E0E0"></path><path d="M213.654 464.872C213.801 464.921 213.215 467.213 212.727 470.139C212.239 473.017 212.093 475.406 211.946 475.406C211.8 475.406 211.751 472.968 212.239 470.042C212.727 467.116 213.557 464.824 213.654 464.872Z" fill="#263238"></path><path d="M224.683 474.723C224.585 474.772 224.439 473.797 223.512 472.577C223.073 471.992 222.389 471.358 221.511 470.919C220.682 470.48 219.608 470.188 218.486 470.237C217.364 470.285 216.29 470.676 215.509 471.212C214.68 471.748 214.094 472.431 213.704 473.065C212.874 474.333 212.826 475.309 212.728 475.309C212.679 475.26 212.679 475.016 212.728 474.626C212.826 474.187 212.972 473.553 213.362 472.87C213.753 472.187 214.387 471.407 215.217 470.822C216.095 470.188 217.217 469.798 218.437 469.749C219.657 469.7 220.828 469.993 221.755 470.529C222.682 471.017 223.365 471.748 223.805 472.382C224.244 473.016 224.488 473.65 224.585 474.041C224.732 474.479 224.732 474.723 224.683 474.723Z" fill="#263238"></path><path d="M242.59 467.604L236.101 464.629L236.296 446.487L250.202 448.194L249.178 465.019L242.59 467.604Z" fill="#AE7461"></path><path d="M243.615 464.97L249.178 465.019C249.178 465.019 257.327 472.383 257.912 476.235C258.107 477.601 257.717 479.113 257.717 479.113L244.737 478.722C242.151 478.576 235.32 478.186 235.32 478.186L236.101 464.628L243.615 464.97Z" fill="#455A64"></path><path d="M257.619 408.984C257.57 409.764 250.202 458.142 250.202 458.142L233.319 457.947L234.539 407.618L257.619 408.984Z" fill="#263238"></path><path d="M235.466 476.382L257.961 477.699L257.814 480.039L235.32 478.723L235.466 476.382Z" fill="#E0E0E0"></path><path d="M248.055 465.994C248.153 465.945 248.836 468.286 249.129 471.212C249.471 474.187 249.275 476.625 249.129 476.625C248.983 476.577 248.934 474.187 248.641 471.31C248.348 468.384 247.909 465.994 248.055 465.994Z" fill="#263238"></path><path d="M236.442 475.162C236.442 475.162 236.442 474.919 236.588 474.48C236.735 474.09 236.979 473.504 237.467 472.87C237.955 472.236 238.686 471.602 239.614 471.115C240.59 470.676 241.761 470.432 242.98 470.578C244.2 470.676 245.274 471.163 246.103 471.846C246.933 472.48 247.518 473.26 247.86 473.992C248.202 474.675 248.348 475.309 248.397 475.748C248.446 476.187 248.397 476.43 248.348 476.43C248.25 476.43 248.25 475.455 247.518 474.138C247.177 473.504 246.591 472.773 245.811 472.188C245.079 471.602 244.054 471.212 242.932 471.066C241.809 470.968 240.687 471.163 239.809 471.554C238.93 471.944 238.247 472.529 237.759 473.114C236.783 474.236 236.539 475.211 236.442 475.162Z" fill="#263238"></path><path d="M191.989 279.942L183.499 275.309L186.914 270.189C186.914 270.189 186.573 264.629 186.817 262.483C187.061 260.289 187.988 254.144 188.476 252.34C188.866 250.779 189.5 251.072 189.793 251.559C189.94 251.803 189.891 252.291 189.842 252.583L189.354 257.948H189.549C189.549 257.948 190.671 252.876 191.062 250.389C191.403 247.95 192.33 248.097 192.916 248.389C193.453 248.682 192.477 256.631 192.477 256.631L193.648 250.34C193.648 250.34 193.697 246.878 195.161 246.926C196.576 246.926 195.893 250.291 195.893 250.291L195.161 256.534C195.161 256.534 196.234 252.632 196.673 250.974C197.064 249.316 197.405 248.194 198.625 248.633C199.699 248.975 199.211 250.828 198.82 253.169C198.479 255.363 197.015 262.191 197.015 262.191C197.015 262.191 197.844 262.386 198.381 260.923C198.967 259.46 199.455 257.802 200.577 256.973C201.65 256.095 202.577 256.485 202.431 257.411C202.236 258.289 200.382 262.483 199.406 265.361C198.479 268.238 195.405 271.213 195.405 271.213L191.989 279.942Z" fill="#AE7461"></path><path d="M236.881 313.251H217.949V296.767H236.881V313.251Z" fill="#AE7461"></path><path d="M207.8 331.783C207.8 331.783 177.108 317.055 172.911 313.641C168.715 310.228 169.154 306.96 170.959 300.425C172.716 293.939 183.109 271.164 183.109 271.164L195.308 277.211L185.5 302.083L198.675 308.423L207.019 309.594L207.8 331.783Z" fill="#2B7DDD"></path><path d="M256.887 314.421C256.887 314.47 254.252 335.05 254.252 335.002L251.569 353.582H207.701L202.334 327.833C202.334 324.76 203.651 309.74 203.651 309.74C203.651 309.74 209.653 308.667 214.191 307.643C220.242 306.228 222.73 306.472 222.73 306.472L240.541 307.155L246.884 309.008C251.813 310.374 256.887 314.421 256.887 314.421Z" fill="#2B7DDD"></path><path d="M185.695 302.18C185.695 302.278 183.792 302.57 182.035 303.985C180.23 305.399 179.449 307.155 179.351 307.106C179.303 307.057 179.449 306.618 179.839 305.984C180.23 305.301 180.913 304.472 181.84 303.741C182.767 303.009 183.743 302.57 184.475 302.375C185.207 302.131 185.646 302.132 185.695 302.18Z" fill="#263238"></path><path d="M256.887 314.422C256.887 314.422 261.718 317.836 262.693 325.151C263.718 332.466 265.816 353.583 265.816 353.583H254.154L251.91 344.805L256.887 314.422Z" fill="#2B7DDD"></path><path d="M256.302 322.907C256.302 322.907 256.285 323.021 256.253 323.249C256.253 323.476 256.236 323.769 256.204 324.126C256.106 324.907 255.96 326.028 255.765 327.394C255.423 330.125 254.789 333.929 254.106 338.074C253.423 342.219 252.837 345.975 252.349 348.754C252.154 350.12 251.959 351.193 251.861 352.022C251.796 352.38 251.747 352.672 251.715 352.9C251.682 353.095 251.65 353.192 251.617 353.192C251.617 353.192 251.617 353.095 251.617 352.9C251.65 352.64 251.682 352.347 251.715 352.022C251.812 351.242 251.959 350.12 252.154 348.754C252.495 345.975 253.081 342.219 253.764 338.025C254.447 333.88 255.082 330.125 255.521 327.345C255.765 326.028 255.911 324.907 256.058 324.126C256.123 323.769 256.171 323.476 256.204 323.249C256.236 323.021 256.269 322.907 256.302 322.907Z" fill="#455A64"></path><path d="M200.383 315.104C200.432 315.056 200.676 316.421 201.066 318.616C201.505 320.761 202.091 323.785 202.774 327.101C203.408 330.418 203.994 333.441 204.286 335.636C204.433 336.709 204.579 337.635 204.628 338.22C204.677 338.854 204.677 339.196 204.628 339.196C204.579 339.196 204.335 337.879 203.945 335.685C203.555 333.49 202.92 330.515 202.237 327.199C201.603 323.883 201.017 320.859 200.724 318.664C200.578 317.543 200.48 316.665 200.383 316.031C200.334 315.446 200.334 315.104 200.383 315.104Z" fill="#455A64"></path><path d="M205.213 406.789C198.187 406.789 192.38 401.229 192.185 394.207C191.794 380.99 191.794 360.557 191.794 351.729C191.794 349.291 193.746 347.34 196.186 347.34H264.012C266.451 347.34 268.403 349.389 268.354 351.827C268.159 360.995 267.622 382.356 267.281 395.572C267.134 401.815 262.011 406.789 255.765 406.789H205.213Z" fill="#455A64"></path><path d="M189.794 479.064L185.89 478.576L193.893 413.275C194.38 409.472 197.552 406.545 201.358 406.545H258.546C262.352 406.545 265.573 409.423 266.012 413.275C267.964 428.686 273.283 478.137 273.331 478.625L269.428 479.015C269.379 478.527 264.06 429.125 262.157 413.763C261.913 411.861 260.401 410.447 258.546 410.447H201.358C199.553 410.447 197.991 411.861 197.796 413.763L189.794 479.064Z" fill="#E0E0E0"></path><path d="M189.794 479.064C189.794 479.064 189.843 478.723 189.891 478.04C189.989 477.357 190.103 476.365 190.233 475.065C190.574 472.431 191.014 468.579 191.599 463.604C192.77 453.656 194.527 439.269 196.674 421.42C196.934 419.209 197.211 416.933 197.503 414.592C197.552 414.056 197.601 413.422 197.796 412.836C198.04 412.251 198.382 411.715 198.821 411.276C199.309 410.837 199.894 410.544 200.529 410.398C201.163 410.203 201.797 410.301 202.383 410.252C207.295 410.252 212.402 410.252 217.705 410.252C228.293 410.252 239.663 410.252 251.569 410.252C253.065 410.252 254.578 410.252 256.107 410.252C256.855 410.252 257.603 410.252 258.351 410.252C259.181 410.203 260.01 410.447 260.693 410.886C261.328 411.325 261.865 412.007 262.157 412.788C262.45 413.568 262.45 414.348 262.548 415.129C262.71 416.657 262.889 418.201 263.084 419.762C263.768 425.971 264.467 432.328 265.183 438.83C266.646 451.754 268.159 465.214 269.672 479.015L269.428 478.771C270.648 478.625 271.965 478.527 273.283 478.381L273.087 478.625C272.892 476.869 272.648 474.919 272.453 473.017C271.038 460.337 269.623 447.901 268.305 435.855C267.622 429.808 266.955 423.874 266.305 418.055C266.142 416.592 265.98 415.145 265.817 413.714C265.719 412.251 265.231 410.935 264.402 409.764C263.572 408.642 262.401 407.765 261.133 407.277C260.498 407.033 259.815 406.887 259.132 406.838C258.449 406.789 257.717 406.789 257.034 406.789C245.713 406.789 234.881 406.789 224.585 406.789C219.445 406.789 214.435 406.789 209.556 406.789C207.149 406.789 204.774 406.789 202.432 406.789C201.846 406.74 201.261 406.74 200.675 406.789C200.138 406.887 199.553 406.984 199.016 407.179C197.991 407.521 197.015 408.106 196.235 408.935C195.454 409.667 194.868 410.642 194.478 411.666C194.088 412.69 194.039 413.763 193.893 414.836C193.632 417.014 193.372 419.144 193.112 421.225C192.591 425.386 192.103 429.369 191.648 433.173C190.672 440.732 189.843 447.56 189.111 453.558C187.598 465.555 186.524 474.138 185.939 478.576V478.527C187.208 478.723 188.184 478.82 188.818 478.918C189.468 479.015 189.794 479.064 189.794 479.064C189.794 479.064 189.501 479.015 188.867 478.966C188.184 478.869 187.208 478.771 185.89 478.625H185.841L185.89 478.576C186.378 474.09 187.403 465.506 188.867 453.558C189.55 447.56 190.379 440.732 191.306 433.124C191.762 429.32 192.25 425.337 192.77 421.176C192.998 419.095 193.242 416.966 193.502 414.787C193.649 413.763 193.697 412.593 194.137 411.52C194.527 410.447 195.112 409.471 195.942 408.642C196.772 407.813 197.796 407.179 198.918 406.789C199.455 406.594 200.041 406.497 200.626 406.399C201.261 406.35 201.846 406.35 202.432 406.35C204.774 406.35 207.149 406.35 209.556 406.35C214.435 406.35 219.445 406.35 224.585 406.35C234.881 406.35 245.713 406.35 257.034 406.35C257.717 406.35 258.4 406.302 259.132 406.35C259.864 406.399 260.596 406.594 261.279 406.838C262.694 407.374 263.914 408.301 264.792 409.52C265.671 410.691 266.207 412.154 266.305 413.617C266.468 415.08 266.63 416.543 266.793 418.006C267.443 423.826 268.11 429.759 268.793 435.806C270.16 447.852 271.526 460.288 272.941 472.968C273.185 474.87 273.38 476.821 273.575 478.576L273.624 478.82L273.331 478.869C272.014 479.015 270.696 479.161 269.477 479.259L269.233 479.308L269.184 479.064C267.671 465.262 266.159 451.851 264.695 438.879C263.979 432.409 263.28 426.053 262.596 419.81C262.434 418.25 262.255 416.705 262.06 415.177C261.962 414.397 261.962 413.617 261.718 412.934C261.474 412.251 260.986 411.666 260.401 411.276C259.815 410.886 259.132 410.691 258.351 410.691C257.603 410.691 256.855 410.691 256.107 410.691C254.578 410.691 253.065 410.691 251.569 410.691C239.663 410.691 228.293 410.691 217.705 410.691C212.402 410.658 207.295 410.642 202.383 410.642C201.749 410.691 201.163 410.593 200.578 410.739C200.041 410.886 199.504 411.178 199.114 411.569C198.675 411.959 198.333 412.398 198.138 412.934C197.943 413.47 197.943 414.056 197.845 414.641C197.552 416.982 197.276 419.274 197.015 421.517C194.771 439.366 192.965 453.753 191.746 463.702C191.111 468.676 190.623 472.48 190.331 475.114C190.135 476.414 190.005 477.406 189.94 478.089C189.843 478.739 189.794 479.064 189.794 479.064Z" fill="#263238"></path><path d="M260.498 394.987C260.498 394.987 260.498 395.085 260.498 395.28C260.498 395.475 260.596 395.767 260.449 396.109C260.352 396.889 259.766 397.962 258.546 398.791C256.155 400.498 252.008 401.522 246.933 402.205C236.735 403.473 222.487 403.278 206.872 401.815C204.969 401.62 202.968 401.278 201.261 400.303C199.504 399.327 198.382 397.572 197.845 395.767C197.259 393.963 197.113 392.11 196.918 390.354C196.755 388.598 196.592 386.875 196.43 385.185C195.844 378.406 195.503 372.31 195.356 367.189C195.161 362.068 195.112 357.923 195.112 355.046C195.112 353.632 195.112 352.51 195.112 351.778C195.145 351.421 195.161 351.128 195.161 350.901C195.161 350.705 195.161 350.608 195.161 350.608C195.194 350.608 195.21 350.705 195.21 350.901C195.21 351.128 195.226 351.421 195.259 351.778C195.259 352.559 195.275 353.648 195.307 355.046C195.356 357.923 195.454 362.068 195.698 367.189C195.942 372.31 196.332 378.406 196.918 385.136C197.08 386.827 197.243 388.55 197.406 390.305C197.601 392.061 197.747 393.865 198.284 395.621C198.821 397.328 199.894 398.937 201.505 399.864C203.115 400.791 205.018 401.132 206.97 401.327C222.487 402.79 236.735 402.985 246.884 401.815C251.959 401.229 256.107 400.254 258.449 398.645C259.62 397.816 260.254 396.84 260.352 396.109C260.498 395.767 260.449 395.475 260.449 395.28C260.482 395.085 260.498 394.987 260.498 394.987Z" fill="#263238"></path><path d="M235.369 263.02C237.711 261.069 242.688 261.996 243.664 263.605C245.518 262.922 247.86 264.044 248.446 265.897C250.203 266.515 251.943 267.133 253.667 267.75C254.545 268.043 255.472 268.384 256.107 269.116C256.692 269.799 256.888 270.969 256.204 271.652C258.059 272.383 258.449 275.261 256.888 276.431C257.522 277.358 257.18 278.821 256.204 279.308C257.473 281.259 258.351 283.405 258.888 285.697C259.132 286.624 259.279 287.648 258.791 288.526C258.351 289.404 257.083 289.842 256.4 289.208C256.839 289.989 256.741 291.062 256.156 291.744C257.083 291.891 257.18 293.305 256.448 293.89C255.765 294.475 254.741 294.427 253.862 294.28C252.935 294.134 251.959 293.988 251.179 294.427C251.179 294.671 251.276 294.866 251.422 295.012C252.789 296.475 252.984 298.718 251.618 300.181C251.488 300.311 251.357 300.441 251.227 300.571C250.642 301.205 249.276 301.742 248.397 302.083C246.201 302.864 245.03 302.522 242.737 302.571C243.176 304.083 239.028 306.911 235.222 303.156C219.803 309.984 216.973 302.23 216.973 302.23C212.728 305.009 208.824 302.912 208.385 301.693C207.36 301.839 206.336 301.254 205.652 300.425C205.018 299.596 204.677 298.572 204.335 297.597C202.237 296.719 200.822 294.427 201.017 292.183C199.699 290.867 198.967 288.965 199.114 287.111C197.064 286.185 196.235 283.356 197.504 281.503C198.284 278.967 199.455 276.577 201.017 274.48C199.602 273.993 199.309 271.993 200.09 270.725C200.822 269.457 202.237 268.775 203.554 268.141C202.481 268.287 201.7 266.824 202.09 265.751C202.481 264.727 203.554 264.093 204.579 263.654C206.043 263.02 207.653 262.532 209.263 262.24C209.995 260.435 212.679 258.582 214.533 257.948C222.048 255.51 227.171 255.266 235.369 263.02Z" fill="#263238"></path><path d="M257.278 289.306C257.522 289.306 257.912 289.209 258.352 289.014C258.791 288.77 259.279 288.331 259.523 287.697C259.815 287.063 259.864 286.136 259.425 285.356C259.23 284.966 258.888 284.624 258.596 284.234C258.254 283.844 257.912 283.454 257.766 282.918C257.62 282.332 257.815 281.747 258.059 281.259C258.352 280.723 258.693 280.235 258.937 279.699C259.425 278.577 259.523 277.212 259.035 275.992C258.596 274.773 257.522 273.7 256.156 273.213L256.058 273.164L256.156 273.066C256.4 272.823 256.595 272.481 256.693 272.14C256.79 271.75 256.806 271.359 256.741 270.969C256.693 270.628 256.595 270.238 256.449 269.896C256.253 269.539 256.009 269.214 255.717 268.921C254.887 268.092 253.765 267.556 252.691 267.214C251.618 266.873 250.496 266.678 249.422 266.629H249.324L249.373 266.531C249.471 265.263 248.837 263.995 247.861 263.361C247.324 263.02 246.787 262.825 246.202 262.825C245.616 262.728 245.079 262.923 244.542 263.02C244.299 263.069 244.006 263.118 243.713 263.069C243.469 263.069 243.176 262.971 242.932 262.874C242.493 262.679 242.103 262.337 241.712 262.045C241.322 261.752 240.98 261.508 240.541 261.313C240.151 261.151 239.761 261.037 239.37 260.972C238.541 260.874 237.809 261.021 237.272 261.216C236.686 261.46 236.247 261.801 235.906 262.094C235.613 262.386 235.369 262.679 235.271 262.874C235.125 263.069 235.076 263.166 235.076 263.166C235.076 263.166 235.125 263.02 235.223 262.825C235.369 262.63 235.564 262.386 235.857 262.045C236.198 261.752 236.638 261.411 237.223 261.167C237.809 260.923 238.541 260.777 239.37 260.874C239.761 260.939 240.167 261.053 240.59 261.216C241.029 261.411 241.42 261.655 241.761 261.947C242.152 262.24 242.542 262.581 242.981 262.776C243.241 262.874 243.502 262.939 243.762 262.971C244.006 262.971 244.25 262.923 244.542 262.874C245.079 262.776 245.616 262.63 246.202 262.679C246.787 262.727 247.373 262.923 247.909 263.264C248.983 263.898 249.617 265.215 249.52 266.58L249.422 266.483C250.496 266.531 251.667 266.726 252.74 267.068C253.862 267.458 254.985 267.946 255.814 268.824C256.107 269.116 256.351 269.441 256.546 269.799C256.741 270.189 256.888 270.579 256.937 270.969C256.969 271.359 256.936 271.75 256.839 272.14C256.741 272.53 256.546 272.92 256.253 273.164L256.205 273.066C257.62 273.554 258.693 274.676 259.181 275.944C259.669 277.212 259.571 278.626 259.084 279.748C258.791 280.333 258.449 280.772 258.205 281.308C257.912 281.796 257.766 282.332 257.912 282.869C258.01 283.357 258.352 283.795 258.644 284.186C258.986 284.527 259.279 284.917 259.523 285.307C259.962 286.136 259.913 287.063 259.62 287.697C259.327 288.38 258.791 288.819 258.352 289.062C257.912 289.257 257.522 289.355 257.278 289.355C256.985 289.355 256.888 289.355 256.888 289.355C256.888 289.306 256.985 289.355 257.278 289.306Z" fill="#263238"></path><path d="M205.359 267.36C205.392 267.295 205.408 267.214 205.408 267.116C205.473 266.856 205.555 266.499 205.652 266.044C205.75 265.556 205.896 265.019 206.091 264.385C206.286 263.751 206.579 263.02 207.018 262.288C207.458 261.557 208.092 260.825 208.921 260.289C209.312 259.996 209.8 259.801 210.337 259.655C210.824 259.509 211.41 259.46 211.947 259.411C212.483 259.314 213.069 259.216 213.557 258.923C214.045 258.631 214.533 258.241 214.972 257.85C215.411 257.46 215.85 256.973 216.338 256.582C216.826 256.192 217.363 255.851 217.997 255.656C219.266 255.266 220.535 255.266 221.755 255.363C222.958 255.493 224.113 255.705 225.219 255.997C227.366 256.534 229.22 257.412 230.635 258.338C232.05 259.314 232.978 260.338 233.563 261.069C233.726 261.264 233.856 261.427 233.954 261.557C234.051 261.719 234.132 261.849 234.197 261.947C234.263 262.045 234.311 262.126 234.344 262.191C234.376 262.256 234.393 262.288 234.393 262.288C234.393 262.288 234.376 262.256 234.344 262.191C234.279 262.158 234.214 262.093 234.149 261.996C234.084 261.866 234.002 261.736 233.905 261.606C233.807 261.443 233.677 261.281 233.514 261.118C232.929 260.386 232.002 259.362 230.587 258.436C229.172 257.509 227.317 256.68 225.17 256.144C224.097 255.851 222.958 255.64 221.755 255.51C220.535 255.412 219.266 255.412 218.046 255.802C217.461 255.997 216.924 256.339 216.436 256.729C215.948 257.119 215.509 257.558 215.07 257.948C214.631 258.387 214.143 258.777 213.606 259.07C213.118 259.314 212.532 259.46 211.947 259.557C211.41 259.606 210.873 259.655 210.337 259.752C209.849 259.899 209.409 260.143 208.97 260.386C208.141 260.923 207.555 261.654 207.116 262.337C206.677 263.069 206.384 263.751 206.189 264.385C205.945 265.019 205.799 265.605 205.701 266.044C205.603 266.499 205.522 266.856 205.457 267.116C205.424 267.214 205.408 267.312 205.408 267.409C205.376 267.442 205.359 267.458 205.359 267.458C205.359 267.458 205.359 267.425 205.359 267.36Z" fill="#263238"></path><path d="M209.995 295.109C209.995 295.158 209.848 295.061 209.507 294.914C209.263 294.768 208.824 294.427 208.433 293.89C208.092 293.403 207.701 292.622 207.652 291.696C207.555 290.769 207.75 289.647 208.531 288.721L208.58 288.965C207.36 288.428 206.237 287.111 206.091 285.405C205.945 283.746 206.969 281.893 208.775 281.162L208.677 281.503C207.75 280.235 207.36 278.528 207.701 276.87C208.043 275.163 209.311 273.651 210.971 272.92C211.751 272.578 212.581 272.383 213.459 272.432L213.215 272.725C212.678 270.189 213.898 267.604 215.85 266.385C217.802 265.166 220.193 265.263 221.901 266.19L221.608 266.287C222.291 264.678 223.56 263.556 224.828 263.069C226.146 262.532 227.366 262.581 228.342 262.776C229.269 263.02 229.952 263.41 230.342 263.751C230.57 263.881 230.716 263.995 230.781 264.093C230.879 264.19 230.928 264.255 230.928 264.288C230.879 264.337 230.147 263.459 228.293 263.02C227.366 262.825 226.146 262.825 224.975 263.361C223.755 263.849 222.584 264.922 221.998 266.434L221.901 266.629L221.705 266.531C220.144 265.702 217.899 265.653 216.094 266.824C214.337 267.897 213.215 270.335 213.703 272.627L213.752 272.92H213.459C212.678 272.92 211.898 273.066 211.166 273.408C209.653 274.09 208.531 275.456 208.189 276.968C207.848 278.479 208.189 280.089 209.068 281.259L209.214 281.503L208.921 281.601C207.36 282.235 206.384 283.893 206.53 285.405C206.628 286.868 207.604 288.136 208.726 288.672L208.921 288.77L208.775 288.916C208.043 289.745 207.848 290.818 207.896 291.696C207.945 292.574 208.287 293.305 208.58 293.793C209.312 294.866 210.043 295.061 209.995 295.109Z" fill="#455A64"></path><path d="M225.024 296.085C225.024 296.134 224.78 295.939 224.439 295.5C224.048 295.061 223.56 294.378 223.219 293.354C222.877 292.379 222.731 291.062 223.072 289.599C223.414 288.185 224.292 286.673 225.707 285.649L225.659 285.941C224.487 284.186 223.951 281.747 224.585 279.357C225.414 276.285 228.049 274.237 230.538 273.7L230.392 273.993C229.806 272.579 229.757 271.067 230.05 269.896C230.392 268.677 230.977 267.702 231.563 267.068C232.197 266.385 232.783 265.995 233.173 265.751C233.612 265.507 233.856 265.458 233.856 265.458C233.905 265.556 232.88 265.897 231.758 267.214C231.221 267.897 230.684 268.824 230.44 269.945C230.196 271.116 230.245 272.481 230.831 273.847L230.928 274.09L230.636 274.139C228.342 274.676 225.854 276.626 225.073 279.504C224.487 281.698 224.975 284.039 226.049 285.697L226.195 285.892L226 286.039C224.634 286.965 223.804 288.38 223.463 289.696C223.072 291.062 223.219 292.33 223.512 293.256C224.097 295.256 225.122 296.036 225.024 296.085Z" fill="#455A64"></path><path d="M246.006 294.963C245.957 294.915 246.737 294.573 247.225 293.305C247.469 292.671 247.616 291.842 247.323 290.964C247.03 290.135 246.298 289.257 245.225 288.916L244.932 288.819L245.127 288.575C246.006 287.453 246.689 285.99 246.835 284.332C247.03 282.674 246.64 280.869 245.615 279.357C244.542 277.651 242.834 276.48 241.175 275.992L240.931 275.944L240.98 275.7C241.565 274.09 241.516 272.384 241.077 271.067C240.638 269.701 239.857 268.628 239.077 267.946C237.466 266.531 236.149 266.336 236.149 266.239C236.198 266.239 236.49 266.288 237.076 266.483C237.613 266.678 238.393 267.019 239.272 267.702C240.101 268.433 240.98 269.506 241.468 270.921C241.956 272.335 242.053 274.139 241.468 275.846L241.272 275.554C243.127 276.041 244.883 277.26 246.054 279.065C247.128 280.723 247.518 282.674 247.323 284.381C247.128 286.136 246.396 287.697 245.469 288.819L245.371 288.477C246.542 288.916 247.323 289.94 247.616 290.867C247.957 291.842 247.762 292.769 247.469 293.403C247.177 294.037 246.786 294.427 246.494 294.671C246.201 294.915 246.006 294.963 246.006 294.963Z" fill="#455A64"></path></svg>